<svg width="402" height="431" viewBox="0 0 402 431" fill="none" xmlns="http://www.w3.org/2000/svg">
<path d="M383.889 5.32138C386.331 5.53932 388.696 6.2846 390.823 7.50609C392.949 8.72759 394.786 10.3962 396.207 12.397C397.628 14.3978 398.599 16.6833 399.053 19.096C399.508 21.5088 399.434 23.9915 398.839 26.3732L340.06 267.484C340.06 267.484 342.174 273.265 338.944 280.63C335.889 287.604 328.43 289.721 328.43 289.721L229.575 409.414C223.793 415.454 216.841 420.249 209.143 423.503C201.446 426.757 193.165 428.402 184.811 428.337L17.6565 424.969C4.00716 424.863 -2.48985 408.106 7.5172 398.803L10.9798 395.367L10.8317 396.51C10.6995 397.45 10.7626 398.407 11.0171 399.321C11.2716 400.235 11.712 401.086 12.3107 401.821C12.9093 402.557 13.6533 403.16 14.4959 403.594C15.3385 404.027 16.2616 404.282 17.2071 404.341C17.3023 404.341 17.3974 404.341 17.4926 404.341L178.811 407.269C195.616 407.063 211.681 400.312 223.602 388.447L314.416 276.728C315.219 276.665 318.999 275.669 320.722 273.837C323.117 271.259 321.933 266.255 321.933 266.255L385.226 13.2157C385.961 10.2401 384.037 5.66554 383.889 5.32138Z" fill="#134136"/>
<path d="M321.986 271.274C321.799 272.244 321.355 273.146 320.701 273.885C318.978 275.738 315.198 276.717 314.395 276.781L223.581 388.499C211.66 400.365 195.595 407.116 178.79 407.322L17.4716 404.389H17.1861C16.2401 404.33 15.3165 404.075 14.4735 403.641C13.6305 403.207 12.8862 402.603 12.2875 401.867C11.6887 401.131 11.2484 400.279 10.9943 399.365C10.7402 398.45 10.6777 397.493 10.8108 396.553L10.9588 395.409L134.754 276.045C134.754 276.045 139.089 275.579 141.415 271.852C141.553 271.629 141.68 271.402 141.801 271.158L321.986 271.274Z" fill="#C9EAE2"/>
<path d="M385.205 13.2685L321.912 266.308C322.264 267.942 322.289 269.63 321.986 271.274L141.801 271.131C142.937 268.812 143.17 265.551 141.653 262.988L202.261 38.1113C203.105 34.8041 204.926 31.8285 207.484 29.573C210.042 27.3176 213.22 25.8868 216.603 25.4674L380.315 5.39524C381.501 5.24597 382.699 5.22296 383.889 5.32648C384.037 5.66534 385.961 10.24 385.205 13.2685Z" fill="#C1EAE0"/>
<path d="M362.003 33.0178C358.71 35.9193 354.074 36.0252 351.647 33.2613C349.221 30.4975 349.914 25.9071 353.202 23.0056C356.49 20.104 361.131 19.9929 363.558 22.7567C365.984 25.5206 365.292 30.1163 362.003 33.0178ZM323.878 27.1037C323.131 26.3023 322.19 25.7071 321.147 25.3751C320.104 25.0432 318.993 24.9856 317.921 25.2081L255.182 33.3249C253.412 33.5597 251.754 34.3236 250.425 35.5169C247.136 38.4184 246.439 43.009 248.87 45.7728C249.494 46.4582 250.265 46.9937 251.124 47.3394C251.984 47.685 252.91 47.8318 253.834 47.7689C254.29 47.7525 254.743 47.694 255.188 47.5942L317.35 39.578C317.535 39.578 317.72 39.5356 317.878 39.5038C319.511 39.2177 321.034 38.4847 322.277 37.3859C325.607 34.4738 326.315 29.8781 323.878 27.1037Z" fill="#0A2720"/>
<path d="M222.37 304.139L184.652 303.726C184.328 303.721 184.008 303.788 183.713 303.922C183.419 304.057 183.158 304.256 182.95 304.504L178.367 309.899C178.312 309.975 178.279 310.063 178.269 310.156C178.26 310.248 178.275 310.341 178.313 310.426C178.351 310.511 178.411 310.584 178.486 310.639C178.561 310.693 178.65 310.726 178.742 310.736L216.111 311.265C216.533 311.269 216.951 311.176 217.331 310.992C217.712 310.808 218.045 310.54 218.305 310.206L222.645 304.679C222.677 304.627 222.695 304.568 222.698 304.507C222.7 304.446 222.687 304.386 222.659 304.331C222.632 304.277 222.59 304.231 222.54 304.197C222.489 304.163 222.431 304.143 222.37 304.139ZM202.457 316.041L175.316 315.893C175.002 315.891 174.69 315.956 174.403 316.085C174.116 316.214 173.859 316.403 173.651 316.64L170.982 319.668C170.926 319.744 170.891 319.832 170.881 319.926C170.871 320.019 170.886 320.113 170.924 320.199C170.962 320.284 171.022 320.358 171.099 320.413C171.175 320.468 171.264 320.501 171.357 320.51L198.069 320.907C198.498 320.912 198.922 320.816 199.307 320.628C199.693 320.439 200.029 320.163 200.289 319.822L202.731 316.608C202.77 316.556 202.794 316.494 202.8 316.429C202.806 316.364 202.794 316.299 202.766 316.241C202.738 316.182 202.694 316.133 202.639 316.098C202.585 316.062 202.521 316.043 202.457 316.041ZM285.981 291.458L196.583 290.171C196.256 290.167 195.931 290.235 195.633 290.372C195.335 290.508 195.071 290.709 194.86 290.96L188.871 298.097C188.816 298.173 188.783 298.262 188.774 298.355C188.764 298.448 188.78 298.541 188.819 298.626C188.857 298.711 188.918 298.784 188.994 298.838C189.07 298.892 189.158 298.925 189.251 298.934L278.39 300.247C278.811 300.252 279.229 300.16 279.608 299.976C279.988 299.792 280.32 299.522 280.578 299.188L286.245 292.014C286.281 291.961 286.303 291.899 286.307 291.835C286.311 291.771 286.298 291.707 286.268 291.65C286.239 291.593 286.195 291.545 286.141 291.511C286.086 291.477 286.024 291.459 285.96 291.458H285.981ZM240.571 343.844L83.72 341.519C82.6479 341.505 81.607 341.881 80.7914 342.578L74.4477 347.974C74.3262 348.077 74.2388 348.214 74.1974 348.368C74.1559 348.522 74.1624 348.685 74.2158 348.835C74.2692 348.985 74.3671 349.115 74.4964 349.208C74.6257 349.301 74.7802 349.353 74.9393 349.355L234.418 351.706C234.892 351.714 235.361 351.612 235.79 351.408C236.218 351.204 236.593 350.904 236.887 350.531L241.174 345.099C241.265 344.983 241.322 344.844 241.338 344.698C241.353 344.552 241.327 344.404 241.261 344.272C241.196 344.14 241.094 344.03 240.968 343.954C240.842 343.878 240.697 343.84 240.55 343.844H240.571ZM254.437 330.782L97.5861 328.457C96.5143 328.445 95.474 328.821 94.6574 329.516L88.3138 334.912C88.192 335.015 88.1044 335.153 88.0632 335.307C88.0219 335.462 88.0288 335.625 88.0829 335.775C88.137 335.926 88.2357 336.056 88.3658 336.149C88.4959 336.241 88.6511 336.292 88.8107 336.293L248.284 338.644C248.759 338.652 249.229 338.55 249.658 338.346C250.087 338.142 250.464 337.842 250.758 337.469L255.04 332.036C255.131 331.922 255.188 331.783 255.204 331.637C255.219 331.491 255.193 331.344 255.128 331.212C255.064 331.081 254.963 330.97 254.837 330.894C254.712 330.818 254.568 330.779 254.421 330.782H254.437Z" fill="#96CDC0"/>
<path d="M167.054 286.947L164.168 290.653C170.781 292.003 174.55 294.772 172.282 299.051L157.65 298.06C158.374 296.223 156.724 295.212 153.42 294.984C150.28 294.772 147.991 295.482 147.124 296.599C144.006 300.628 172.927 300.469 166.515 308.745C163.311 312.886 154.747 315.289 145.026 315.374L142.309 318.879L130.679 318.09L133.48 314.474C125.63 313.039 121.671 310.064 123.965 305.51L138.434 306.49C137.424 308.459 139.755 309.719 144.249 310.021C147.886 310.27 150.481 309.492 151.348 308.385C154.726 304.022 125.514 304.552 132.243 295.863C134.887 292.469 142.562 289.732 152.728 289.637L155.445 286.131L167.075 286.92M217.327 372.133L201.188 390.363C200.439 391.21 199.516 391.886 198.482 392.342C197.448 392.799 196.328 393.027 195.198 393.01L41.0857 390.739C40.6433 390.732 40.2128 390.594 39.8485 390.343C39.4842 390.092 39.2023 389.738 39.0384 389.326C38.8745 388.915 38.8359 388.464 38.9274 388.03C39.0189 387.596 39.2365 387.2 39.5527 386.89L56.4955 370.259C57.2792 369.488 58.208 368.881 59.2281 368.473C60.2481 368.065 61.339 367.864 62.4373 367.882L216.45 370.148C216.681 370.151 216.906 370.222 217.098 370.351C217.29 370.48 217.44 370.662 217.531 370.875C217.621 371.088 217.648 371.323 217.609 371.551C217.569 371.779 217.464 371.99 217.306 372.16L217.327 372.133Z" fill="#96CDC0"/>
<path d="M147.5 271.29L311.366 271.121" stroke="#134136" stroke-width="10" stroke-linecap="round" stroke-linejoin="round"/>
<path d="M10.9586 395.383L10.8106 396.526C10.6775 397.466 10.74 398.424 10.9941 399.338C11.2482 400.253 11.6885 401.105 12.2873 401.841C12.8861 402.577 13.6303 403.181 14.4733 403.615C15.3164 404.049 16.2399 404.303 17.1859 404.363H17.4714L178.789 407.291C195.595 407.084 211.66 400.333 223.581 388.468L314.395 276.749C315.198 276.686 318.978 275.69 320.701 273.853C323.096 271.28 321.912 266.276 321.912 266.276L385.205 13.237C385.988 10.092 383.878 5.29497 383.878 5.29497M141.415 271.825C142.869 269.501 143.329 265.821 141.653 262.988L202.261 38.1116C203.105 34.8051 204.925 31.8302 207.482 29.5748C210.039 27.3194 213.216 25.8881 216.597 25.4677L380.315 5.39554C383.047 5.06107 385.818 5.39748 388.39 6.37563C390.963 7.35378 393.259 8.94431 395.08 11.0099C396.902 13.0755 398.194 15.5541 398.845 18.2317C399.496 20.9093 399.487 23.7052 398.818 26.3784L340.086 267.484C340.086 267.484 342.201 273.266 338.966 280.63C335.889 287.604 328.43 289.721 328.43 289.721L229.575 409.414C223.793 415.455 216.841 420.249 209.143 423.503C201.446 426.757 193.165 428.402 184.811 428.337L17.6565 424.969C4.00716 424.864 -2.48985 408.101 7.5172 398.803L134.775 276.003C134.775 276.003 139.089 275.553 141.415 271.825Z" stroke="#051C16" stroke-width="3" stroke-linecap="round" stroke-linejoin="round"/>
<path d="M311.26 199.288C311.202 201.157 311.228 202.877 311.26 204.402C311.546 213.335 313.808 229.356 319.406 246.543L293.651 246.363L293.678 178.411C295.527 178.023 297.309 177.363 298.964 176.452C299.414 178.739 299.847 182.191 300.703 184.923C300.813 185.309 301.039 185.651 301.35 185.904C301.661 186.156 302.043 186.307 302.442 186.334C302.842 186.361 303.24 186.264 303.583 186.056C303.925 185.848 304.195 185.539 304.356 185.172C306.653 179.941 309.433 174.937 312.661 170.225C314.584 171.719 316.765 172.848 319.095 173.555C312.952 182.239 311.477 191.891 311.26 199.288Z" fill="#F0FFEE"/>
<path d="M333.986 126.777C342.878 127.91 349.634 131.235 354.571 135.809L338.522 198.652C328.525 201.464 318.291 200.405 311.26 199.277C311.477 191.864 312.952 182.202 319.116 173.545C316.786 172.838 314.605 171.709 312.682 170.214C309.454 174.926 306.674 179.93 304.377 185.161C304.216 185.529 303.946 185.838 303.604 186.045C303.261 186.253 302.863 186.35 302.464 186.323C302.064 186.296 301.682 186.146 301.371 185.893C301.06 185.641 300.834 185.298 300.724 184.912C299.868 182.18 299.435 178.728 298.985 176.441C297.33 177.353 295.548 178.013 293.699 178.4L293.725 120.518L288.439 115.917C291.939 111.914 299.329 110.824 302.284 110.824C310.531 110.834 325.649 112.931 333.986 126.777Z" fill="#F0FFEE"/>
<path d="M298.985 176.695C299.435 178.977 299.868 182.191 300.725 184.923C300.834 185.309 301.06 185.651 301.371 185.904C301.683 186.156 302.064 186.307 302.464 186.334C302.863 186.361 303.262 186.264 303.604 186.056C303.947 185.848 304.217 185.539 304.377 185.172C306.674 179.941 309.455 174.937 312.682 170.225M307.925 164.93C309.721 167.836 312.23 170.235 315.211 171.898C318.193 173.561 321.549 174.434 324.962 174.434M311.244 199.319C318.275 200.452 328.526 201.517 338.538 198.7L354.566 135.868C349.618 131.288 342.851 127.926 334.002 126.814M293.683 178.453C298.562 177.511 303.775 173.889 306.085 170.463M319.444 246.543C313.845 229.356 311.583 213.335 311.297 204.402C311.054 196.842 311.414 184.404 319.137 173.555M338.332 137.509C332.517 113.937 312.333 110.834 302.321 110.834C297.177 110.834 291.976 112.423 288.476 115.928" stroke="#051C16" stroke-width="3" stroke-linecap="round" stroke-linejoin="round"/>
<path d="M238.504 260.441V99.89L141.241 10.1711L42.7773 97.5921V260.627H148.848L238.504 260.441Z" fill="#F0FFEE"/>
<path d="M217.28 82.9257H220.113M214.827 93.0387H230.876M233.688 95.4478V99.1541M217.433 103.141H238.509M217.433 105.942V110.659M197.688 105.471V110.183M148.187 115.954V120.672M226.425 113.259H187.687V119.285M207.431 123.377V115.843M185.757 123.377H233.71V116.441M217.322 131.018V126.395M156.058 254.909H233.736V249.217M167.969 258.774V255.47M210.809 133.527H238.504M207.41 143.646H234.058V147.654M214.821 153.764H238.504M217.28 150.174V143.646M214.821 163.882H238.647M214.525 174H233.762V166.587M217.28 173.741V169.41M207.41 184.113H233.762V194.231M169.079 235.408V242.985H180.709V247.814M213.584 194.231H238.531M217.306 194.231V186.575M213.077 204.349H238.531M176.49 224.58H194.03M177.822 233.889V223.829M176.511 234.72H186.703M213.584 214.483L233.72 214.579V208.003M217.306 214.642V204.371M168.286 42.4583H176.268M177.796 52.3223V43.8507M187.665 61.1804V55.6157M167.926 62.684V55.6157M148.166 58.5013V52.5659M108.666 58.5013V52.5659M108.465 62.684H88.9589V56.754M138.122 42.4583H167.926V34.8021M148.166 42.3789V32.319M158.035 47.1441V42.4583M171.172 72.8129H208.658M131.583 52.5765H165.532M138.259 51.9729V42.4424H105.019M118.536 47.3082V42.5429M128.374 32.3137V42.5429M116.633 32.2713H138.259M118.536 30.1534V32.319M138.423 29.4438V22.2007H127.771M158.035 32.319V25.6529M140.844 22.2007H154.626M148.166 14.2003V22.8149M93.558 52.5659H98.6382M144 32.3347H165.532M128.374 58.5013V52.5659H103.792M153.785 62.684H117.505M85.1527 62.684H81.6743M74.802 72.8023H70.2135M69.1563 82.9257V75.4549M84.7457 82.9257H59.4822M157.999 72.8023V62.6893H177.743V69.6624M150.968 72.8076H118.562V66.4168M114.973 72.8076H98.7386V66.4168M95.3131 72.8076H79.0787V66.4168M105.822 82.931H88.9589V76.5404M92.5854 103.162H88.9589V96.7715M167.926 75.9685V72.7917H155.308M108.682 72.7917V82.9151H148.166V75.8996M161.17 82.9151H151.021M117.188 93.0281H163.132M138.249 70.4672V64.6961M128.321 80.755V74.973M128.363 103.157V94.6852M138.249 93.0281V82.9151M48.0373 93.0281H110.157M118.552 93.0281V84.0747M98.8284 93.0281V84.6518M59.2444 93.0281V85.1813M79.0682 89.3695V82.9151M81.9227 113.376L42.5342 113.259M83.0857 123.377H43.6285M79.047 113.259L114.941 103.088L136.166 103.146M98.8073 113.259V104.788M79.0682 113.407V104.835M59.2444 111.718V103.189M69.1986 123.42V115.419M49.4593 118.744V113.302M85.4065 113.243L104.807 113.302M108.688 103.13V94.6589M95.2602 103.062L111.452 103.104M69.1245 103.104V94.6324M49.3853 103.104V94.6324M55.6973 103.035L84.8038 103.077M148.187 103.077V93.9758M138.28 108.801V103.178L151.026 103.12M164.347 82.9469H207.415V75.2855M187.671 81.2685V72.797M167.017 93.0334H177.801V82.9204M187.671 100.631V93.0334H197.519V86.5367M190.779 234.677H233.746V225.301M207.902 233.873V224.819M196.932 242.995V233.873M188.236 242.995H203.932M217.539 242.995V233.873M210.82 244.801H238.499M218.939 224.564H229.105M118.562 107.716V113.27H140.712M128.4 117.834V123.388H148.166M158.035 113.27V105.386M151.581 123.716L181.766 123.388M167.91 120.968V113.27H145.761M177.78 132.823V123.383M168.164 134.819V143.624H181.565M142.88 153.742H181.56M118.451 143.624H145.755M164.147 143.624H148.166V137.615M148.166 157.205V163.866H181.565M118.536 163.866V173.984H151.935M158.162 167.323V173.984H177.78M187.65 181.053V176.081M138.259 172.375V169.976M197.519 194.231V184.113H156.624M207.743 194.231H195.743M187.665 204.349V194.231H151.142M177.796 194.019V186.782M158.051 194.231V187.533M187.655 52.5447H169.523M197.54 62.6628H184.113M217.306 89.3589V82.9045H210.243M197.556 68.2859V62.684M205.591 204.333H151.142M197.535 214.446V204.651M190.134 214.446H209.419M88.9589 118.247V123.388H108.682V113.27M97.8506 133.527H208.927M98.8179 150.163V153.764H106.002M99.4629 143.646H110.141M118.552 140.003V135.269M128.416 217.184V221.896M49.4435 184.134V176.663M65.0382 184.134H42.7773M86.0514 184.134H69.1933V177.738M72.8197 204.355H69.1933V197.969M88.9166 174.005V184.124H128.416V177.113M141.421 184.124H131.25M97.4435 194.242H143.408M108.603 181.953V176.176M108.64 204.355V195.883M118.531 194.226V184.108M42.7932 194.199L55.6549 194.226H90.4073M98.8021 194.226V185.267M79.0787 194.226V185.85M59.3183 190.567V184.108M59.2602 163.988V156.517M74.8497 163.839H42.7932M79.084 173.031V164.766M59.2602 173.031V164.766M62.173 214.568L42.7932 214.452M63.3201 224.596H42.7773M59.3024 214.505L95.1968 204.333L116.421 204.386M79.0629 214.505V206.033M59.3024 214.61V206.033M49.4329 224.596V216.596M65.6355 214.42L85.0365 214.478M88.9166 224.596H105.399M88.9166 224.596H69.1933V219.455M88.9166 224.596V214.478M88.9166 204.307V195.835M75.4893 204.233L91.6866 204.275M49.3536 204.275V195.804M42.7773 204.212L65.0382 204.243M49.4593 143.582V134.787M49.4593 160.731V153.261M65.0541 133.453H42.7932M42.9624 143.561H55.8241H90.5448M59.2285 139.293V133.527M59.2285 163.882V154.96M42.7616 153.303L65.0223 153.335M128.4 204.323V195.195M118.499 210.02V204.392L131.244 204.339M98.7704 208.956V214.51H120.92M108.608 219.074V224.596H128.4M148.145 222.171V214.478H125.995M108.666 237.732V244.827H125.995M144.386 244.827H128.4V238.818M59.1493 234.709V226.238M45.7166 234.656L65.1227 234.709M49.2637 239.692V244.827H68.9924V234.709M98.7545 249.804V254.946H118.478V244.822M43.2373 255.036H59.1862V244.917M78.0743 234.704H189.151M79.047 244.801V254.94H94.4619M72.2065 244.822H105.389M59.2338 254.94H75.8223M98.7757 232.845V228.112M88.906 242.461V237.727M42.7669 173.841H113.503M108.672 163.861V159.201M116.273 153.742H119.043M158.041 90.5977V85.6789M166.499 103.151H212.443M207.336 100.631V95.7125M177.775 106.916V113.27H184.985M167.905 113.27H174.64" stroke="#D5E0D3" stroke-linecap="round" stroke-linejoin="round"/>
<path d="M238.504 175.101V99.9165L248.797 109.405L294.561 133.617V260.468H238.525L238.504 175.101ZM143.35 120.566V164.814C143.351 165.27 143.262 165.721 143.088 166.143C142.914 166.564 142.659 166.947 142.338 167.269C142.016 167.592 141.634 167.848 141.214 168.023C140.793 168.197 140.343 168.287 139.887 168.287H107.461C107.006 168.287 106.555 168.197 106.135 168.023C105.714 167.848 105.332 167.592 105.011 167.269C104.689 166.947 104.434 166.564 104.261 166.143C104.087 165.721 103.998 165.27 103.998 164.814V120.566C103.998 119.646 104.363 118.763 105.012 118.112C105.662 117.461 106.542 117.094 107.461 117.092H139.909C140.82 117.101 141.692 117.468 142.335 118.115C142.978 118.762 143.341 119.637 143.345 120.55L143.35 120.566ZM97.1632 120.513V164.459C97.1632 165.374 96.8007 166.251 96.1555 166.898C95.5103 167.545 94.635 167.91 93.7218 167.911H61.4751C60.5619 167.91 59.6865 167.545 59.0413 166.898C58.396 166.251 58.0337 165.374 58.0337 164.459V120.513C58.0351 119.599 58.3981 118.723 59.0432 118.077C59.6883 117.431 60.5628 117.067 61.4751 117.066H93.7218C94.6304 117.069 95.5012 117.431 96.1447 118.073C96.7882 118.716 97.1524 119.587 97.1579 120.497L97.1632 120.513ZM214.647 115.615V132.844L206.987 130.689C206.987 130.689 206.887 125.268 208.954 121.81C210.363 119.341 212.307 117.219 214.642 115.599L214.647 115.615Z" fill="#B9E066"/>
<path d="M185.038 210.343H164.168V130.673H206.791L211.871 132.103V210.343H185.038ZM215.012 47.5729L143.033 3.88097L252.248 102.786L302.31 128.947L215.012 47.5729Z" fill="#B9E066"/>
<path d="M272.818 140.167V177.013L260.057 172.496V134.274L272.818 140.167ZM201.029 210.343H142.351V227.816H129.024V244.642H115.021V260.452H179.16V244.642H191.44L218.929 214.06L201.029 210.343ZM224.078 173.852H218.971L182.178 213.451H187.814L187.882 217.994L224.041 178.681L224.078 173.852ZM161.625 173.852H156.524L119.699 213.477H125.371L125.445 218.02L161.599 178.707L161.625 173.852ZM142.594 165.407C142.587 166.072 142.318 166.708 141.846 167.175C141.374 167.643 140.737 167.906 140.073 167.906H112.325H108.513V164.766L142.874 122.011L142.917 137.419L142.594 165.407ZM96.0162 165.407C96.0093 166.073 95.7398 166.709 95.2665 167.177C94.7932 167.645 94.1545 167.907 93.4893 167.906H65.7466H61.9351V164.766L96.2963 122.011L96.3333 137.419L96.0162 165.407ZM213.976 115.599C213.976 115.599 211.803 116.658 209.218 120.449C207.216 123.474 206.2 127.046 206.31 130.674L157.533 131.123C157.533 131.123 157.533 130.673 157.829 125.527C158.125 120.38 164.702 115.599 164.702 115.599H213.949H213.976Z" fill="#0F3D32"/>
<path d="M179.355 260.447V244.637H191.63V227.81H204.957V210.338H220.044L219.912 260.441L179.355 260.447ZM187.893 218.004C188.02 218.004 188.143 217.954 188.233 217.863C188.323 217.773 188.374 217.65 188.374 217.523V213.721C188.374 213.593 188.323 213.471 188.233 213.38C188.143 213.29 188.02 213.239 187.893 213.239H183.135C183.008 213.239 182.885 213.29 182.795 213.38C182.705 213.471 182.654 213.593 182.654 213.721V217.523C182.654 217.65 182.705 217.773 182.795 217.863C182.885 217.954 183.008 218.004 183.135 218.004H187.893ZM187.433 244.637V218.507L191.63 214.055V244.637H187.433ZM200.765 227.244V204.016L204.957 199.563V227.244H200.765ZM209.752 210.343V193.85L213.944 189.397V210.343H209.752Z" fill="#134136"/>
<path d="M125.229 218.004C125.356 218.004 125.478 217.954 125.569 217.863C125.659 217.773 125.71 217.65 125.71 217.523V213.721C125.71 213.593 125.659 213.471 125.569 213.38C125.478 213.29 125.356 213.239 125.229 213.239H120.471C120.343 213.239 120.22 213.29 120.129 213.38C120.038 213.47 119.986 213.593 119.984 213.721V217.523C119.986 217.651 120.038 217.773 120.129 217.864C120.22 217.954 120.343 218.004 120.471 218.004H125.229ZM124.769 244.637V218.507L128.966 214.055V244.637H124.769ZM138.122 227.244V204.016L142.314 199.563V227.244H138.122ZM147.109 210.343V193.85L151.306 189.397V210.343H147.109Z" fill="#E1E1E1"/>
<path d="M15.0503 122.493L141.241 10.24L238.647 99.7947L248.786 109.436L294.227 133.379V144.514L238.647 116.452L140.696 25.6635L42.7772 110.093V122.493H15.0503Z" fill="#0F3D32"/>
<path d="M299.911 136.577L302.744 129.191L252.26 102.654L141.252 2.65797L12.6401 116.346L15.0666 122.44L141.252 10.1871L248.797 109.383L299.911 136.577Z" fill="#184C40"/>
<path d="M238.504 99.8953V260.447M294.069 133.596V260.447M187.903 217.846V213.303H182.527M129.035 227.81H187.285M191.477 227.81H204.809V199.563M115.026 260.452V244.642H191.477V214.06M187.285 244.642V217.851M201.029 227.816V203.656M213.595 210.348V189.995M210.027 210.348V193.887M125.445 217.867V213.324H120.043M142.34 227.831V199.584M129.013 214.076V244.658M124.816 244.658V217.867M138.561 227.831V203.672M151.126 210.364V190.011M147.563 210.364V193.887M219.875 260.468V210.364H204.788M214.626 115.621H165.664C157.158 120.354 158.004 130.695 158.004 130.695H206.971M214.626 115.621V132.85L206.971 130.695M214.626 115.621C214.626 115.621 206.696 119.973 206.971 130.695M212.051 181.28V132.124M164.152 210.364V130.674M137.799 122.033H108.465V167.943M91.7024 122.038H62.3737V167.943M272.802 172.92V140.305L260.041 134.29M302.717 129.196L252.529 102.924L141.241 2.64738L12.5923 116.304L15.0029 122.446L141.241 10.1976L248.855 109.463L299.9 136.588L302.733 129.202L215.012 47.4512L141.241 2.66858M302.31 260.468H24.3914M142.351 210.343H185.244M179.207 260.447V244.637M42.7878 122.541H15.061M42.7878 260.447V97.592M139.951 117.257H107.176C106.362 117.258 105.582 117.583 105.007 118.16C104.432 118.736 104.109 119.518 104.109 120.333V164.851C104.109 165.666 104.432 166.447 105.007 167.024C105.582 167.601 106.362 167.926 107.176 167.927H139.951C140.764 167.926 141.544 167.601 142.119 167.024C142.694 166.447 143.017 165.666 143.017 164.851V120.333C143.017 119.521 142.696 118.741 142.125 118.165C141.553 117.589 140.778 117.262 139.967 117.257H139.951ZM182.49 213.303V217.846H187.972L224.125 178.532V173.704H219.024L182.49 213.303ZM120.032 213.324V217.867H125.514L161.672 178.554V173.725H156.566L120.032 213.324ZM93.8539 117.273H61.1051C60.2905 117.273 59.5092 117.597 58.9332 118.174C58.3572 118.75 58.0337 119.533 58.0337 120.349V164.867C58.0337 165.683 58.3572 166.465 58.9332 167.042C59.5092 167.619 60.2905 167.943 61.1051 167.943H93.8539C94.6685 167.943 95.4498 167.619 96.0258 167.042C96.6018 166.465 96.9253 165.683 96.9253 164.867V120.349C96.9274 119.945 96.85 119.544 96.6975 119.17C96.5451 118.796 96.3207 118.456 96.037 118.169C95.7533 117.882 95.4159 117.653 95.044 117.497C94.6722 117.34 94.2732 117.259 93.8698 117.257L93.8539 117.273ZM260.041 130.689V172.634L279.183 179.168V140.305L260.041 130.689Z" stroke="#051C16" stroke-width="3" stroke-linecap="round" stroke-linejoin="round"/>
<path d="M245.176 247.616C246.526 246.647 251.478 243.757 259.738 243.997C257.962 246.68 256.614 249.625 255.743 252.727C254.894 255.627 254.466 257.554 254.251 258.763C254.152 259.321 254.098 259.726 254.068 260.005H235.064C236.038 257.927 237.171 255.927 238.453 254.023L238.454 254.023C240.585 250.851 243.141 249.051 244.712 247.945C244.878 247.828 245.033 247.718 245.176 247.616ZM297.043 235.886L297.034 235.88L297.024 235.874C295.824 235.124 294.232 234.448 292.96 233.965C292.321 233.721 291.754 233.524 291.348 233.387C291.144 233.318 290.981 233.265 290.867 233.229C290.811 233.211 290.767 233.197 290.737 233.187L290.723 233.183L290.721 233.182C290.697 233.171 290.664 233.156 290.621 233.138C290.536 233.102 290.411 233.052 290.246 232.993C289.917 232.875 289.43 232.72 288.781 232.569C287.674 232.311 286.099 232.061 284.038 232.009C284.085 231.958 284.133 231.906 284.182 231.854C284.419 231.599 284.671 231.336 284.9 231.118C285.138 230.889 285.318 230.739 285.417 230.681L285.469 230.649L285.513 230.606C286.44 229.688 287.487 228.9 288.625 228.262L288.658 228.244L288.688 228.22L288.688 228.22L288.688 228.22L288.688 228.22L288.689 228.219L288.698 228.213C288.706 228.206 288.72 228.196 288.738 228.183C288.775 228.156 288.831 228.115 288.907 228.062C289.059 227.957 289.289 227.805 289.594 227.622C290.204 227.256 291.112 226.768 292.293 226.29C294.656 225.335 298.111 224.419 302.464 224.593C310.964 224.933 314.836 227.721 315.499 228.198C315.518 228.212 315.534 228.224 315.548 228.234L315.558 228.241L315.597 228.27C315.633 228.296 315.686 228.335 315.755 228.387C315.895 228.491 316.1 228.645 316.362 228.849C316.886 229.255 317.638 229.854 318.543 230.622L318.683 230.74H318.793C318.857 230.8 318.941 230.878 319.04 230.971C319.278 231.197 319.602 231.511 319.947 231.862C320.653 232.583 321.385 233.408 321.682 233.965L321.698 233.996L321.719 234.024C322.29 234.808 322.823 235.619 323.314 236.454H323.29L323.706 237.198C324.515 238.646 325.129 240.193 325.532 241.801C325.229 241.786 324.833 241.776 324.358 241.782C323.188 241.798 321.53 241.912 319.57 242.307C315.811 243.064 310.934 244.853 306.242 248.951C306.188 248.764 306.122 248.549 306.043 248.309C305.75 247.416 305.283 246.174 304.58 244.771C303.177 241.967 300.826 238.498 297.043 235.886Z" fill="#F0FFEE" stroke="#030303"/>
<path d="M296.074 236.442L296.136 236.473C298.707 238.106 300.88 240.297 302.494 242.884L302.495 242.886C303.89 245.099 304.635 246.874 305.03 248.085C305.228 248.69 305.339 249.155 305.399 249.464C305.417 249.555 305.431 249.633 305.441 249.696C304.405 250.835 303.481 252.078 302.685 253.407L302.685 253.407L302.681 253.414C302.672 253.43 302.662 253.446 302.653 253.462C301.587 255.224 300.515 257.491 300.007 260.062C300.002 260.083 299.997 260.104 299.991 260.126L255.112 260.007C255.137 259.833 255.168 259.622 255.206 259.378C255.323 258.631 255.507 257.581 255.772 256.373C256.303 253.949 257.155 250.916 258.44 248.407C261.048 243.313 263.373 240.523 265.184 239.035C266.116 238.27 266.976 237.623 267.603 237.168C267.916 236.941 268.171 236.762 268.347 236.639C268.435 236.578 268.503 236.532 268.549 236.5L268.601 236.465L268.61 236.459L268.613 236.457C268.622 236.452 268.635 236.444 268.654 236.433C268.69 236.412 268.746 236.379 268.821 236.337C268.971 236.253 269.196 236.132 269.494 235.983C270.09 235.687 270.974 235.286 272.114 234.871C274.396 234.043 277.704 233.165 281.795 232.974C285.248 232.82 288.833 233.689 291.575 234.611C292.942 235.071 294.09 235.54 294.896 235.895C295.298 236.072 295.615 236.22 295.83 236.323C295.938 236.374 296.02 236.415 296.074 236.442ZM322.297 260.021H301.048C301.592 257.903 302.422 255.867 303.514 253.971C303.677 253.702 303.84 253.444 304.001 253.199C304.62 252.261 305.207 251.512 305.637 251C305.853 250.743 306.029 250.547 306.15 250.415C306.211 250.349 306.258 250.299 306.289 250.266L306.324 250.23L306.332 250.222L306.333 250.22L306.333 250.22L306.334 250.22L306.334 250.22L307.179 249.368H307.15C308.188 248.361 309.323 247.454 310.543 246.662C313.398 244.808 316.638 243.631 320.016 243.222L320.025 243.221C322.154 242.923 324.303 242.806 326.45 242.871C326.713 242.89 326.971 242.911 327.222 242.933L322.297 260.021ZM329.198 233.644L327.479 241.914C327.183 241.897 326.888 241.884 326.592 241.874C326.563 241.735 326.524 241.563 326.472 241.36C326.326 240.787 326.082 239.972 325.688 238.988C324.964 237.185 323.733 234.813 321.669 232.326C322.154 232.271 322.82 232.223 323.601 232.241C325.186 232.279 327.226 232.59 329.198 233.644Z" fill="#F0FFEE" stroke="#030303"/>
<path d="M307.121 248.703C303.76 251.881 301.421 255.99 300.402 260.505M317.477 243.213C319.951 242.624 322.487 242.336 325.031 242.355C326.019 242.355 326.971 242.392 327.885 242.461M254.532 260.505C254.957 257.023 255.826 253.61 257.117 250.35M259.057 246.172C259.999 244.428 261.109 242.781 262.372 241.254C262.53 241.058 262.694 240.867 262.858 240.682M264.729 238.765L264.983 238.537M266.04 237.648C266.773 237.073 267.539 236.543 268.335 236.059C268.335 236.059 272.136 234.063 273.684 233.645C276.315 232.902 279.034 232.516 281.767 232.496C284.733 232.466 287.689 232.853 290.548 233.645C294.293 234.674 297.696 236.684 300.407 239.469C300.492 239.565 300.581 239.655 300.671 239.75M301.691 240.941C303.766 243.568 305.229 246.625 305.973 249.889M234.291 260.526C235.555 257.441 237.287 254.57 239.424 252.012C239.709 251.679 240 251.35 240.307 251.028C240.481 250.842 240.661 250.657 240.835 250.498M242.146 249.28L242.453 249.021M243.753 248.015L244.282 247.634C244.752 247.316 245.239 247.014 245.741 246.723C247.949 245.465 250.344 244.572 252.835 244.076M254.807 243.753L255.336 243.689M256.462 243.594C257.144 243.546 257.847 243.525 258.576 243.525C259.306 243.525 259.977 243.525 260.648 243.578M282.92 232.517C283.626 231.719 284.38 230.964 285.177 230.256C286.171 229.371 287.231 228.564 288.349 227.842C292.385 225.34 297.051 224.043 301.797 224.104C307.776 224.104 312.37 225.65 315.806 227.842C316.911 228.582 317.97 229.388 318.978 230.256C320.107 231.29 321.132 232.432 322.039 233.666M323.767 236.313C324.232 237.15 324.618 237.944 324.936 238.664M325.739 240.751C325.92 241.285 326.061 241.832 326.162 242.387M231.346 260.521H323.355L329.889 233.65C325.66 231.278 320.648 231.93 320.648 231.93" stroke="#051C16" stroke-width="3" stroke-linecap="round" stroke-linejoin="round"/>
</svg>
