<svg width="445" height="411" viewBox="0 0 445 411" fill="none" xmlns="http://www.w3.org/2000/svg">
<g clip-path="url(#clip0_229_5266)">
<rect y="0.630371" width="445" height="410" rx="16" fill="#DBF2DE"/>
<rect x="92" y="46.6304" width="329" height="97" rx="8" fill="white"/>
<path d="M122.001 113.526C122.896 114.654 124.036 115.565 125.335 116.189C126.634 116.814 128.058 117.135 129.5 117.13C130.942 117.135 132.366 116.814 133.665 116.189C134.964 115.565 136.104 114.654 136.999 113.526C132.022 114.198 126.978 114.198 122.001 113.526ZM143.375 90.4804V91.9235C143.375 93.6558 143.868 95.3491 144.797 96.7902L147.075 100.322C149.153 103.549 147.566 107.934 143.95 108.953C134.503 111.621 124.497 111.621 115.05 108.953C111.434 107.934 109.847 103.549 111.925 100.322L114.203 96.7902C115.134 95.3372 115.629 93.6482 115.627 91.9235V90.4804C115.627 82.5551 121.839 76.1304 129.5 76.1304C137.161 76.1304 143.375 82.5551 143.375 90.4804Z" fill="#53C152"/>
<path d="M172.14 79.6304L174.715 66.3304H175.94L179.531 75.7734L183.113 66.3304H184.338L186.922 79.6304H185.298L183.426 69.9784L180.054 78.9084H178.999L175.627 69.9784L173.765 79.6304H172.14ZM196.213 70.1304H197.809V79.6304H196.213L196.147 78.0249C195.849 78.5759 195.438 79.0224 194.912 79.3644C194.393 79.7064 193.772 79.8774 193.05 79.8774C192.353 79.8774 191.701 79.7475 191.093 79.4879C190.485 79.2219 189.947 78.8577 189.478 78.3954C189.016 77.9267 188.655 77.3884 188.395 76.7804C188.135 76.1724 188.005 75.5169 188.005 74.8139C188.005 74.1362 188.132 73.4965 188.385 72.8949C188.639 72.2932 188.99 71.7675 189.44 71.3179C189.896 70.8619 190.422 70.5072 191.017 70.2539C191.612 69.9942 192.252 69.8644 192.936 69.8644C193.683 69.8644 194.339 70.0417 194.902 70.3964C195.466 70.7447 195.922 71.1975 196.27 71.7549L196.213 70.1304ZM193.021 78.3289C193.648 78.3289 194.19 78.1769 194.646 77.8729C195.108 77.5625 195.463 77.1445 195.71 76.6189C195.963 76.0932 196.09 75.5137 196.09 74.8804C196.09 74.2344 195.963 73.6517 195.71 73.1324C195.457 72.6067 195.099 72.1919 194.636 71.8879C194.18 71.5775 193.642 71.4224 193.021 71.4224C192.394 71.4224 191.824 71.5775 191.311 71.8879C190.798 72.1982 190.39 72.6162 190.086 73.1419C189.788 73.6612 189.639 74.2407 189.639 74.8804C189.639 75.52 189.795 76.1027 190.105 76.6284C190.415 77.1477 190.827 77.5625 191.34 77.8729C191.853 78.1769 192.413 78.3289 193.021 78.3289ZM199.908 70.1304H201.504V79.6304H199.908V70.1304ZM200.725 68.5819C200.472 68.5819 200.26 68.4995 200.089 68.3349C199.918 68.1702 199.832 67.9644 199.832 67.7174C199.832 67.4704 199.918 67.2645 200.089 67.0999C200.26 66.9352 200.469 66.8529 200.716 66.8529C200.963 66.8529 201.172 66.9352 201.343 67.0999C201.514 67.2645 201.599 67.4704 201.599 67.7174C201.599 67.9644 201.514 68.1702 201.343 68.3349C201.178 68.4995 200.972 68.5819 200.725 68.5819ZM212.328 73.7214V79.6304H210.732V74.0729C210.732 73.5915 210.615 73.1545 210.381 72.7619C210.147 72.3692 209.833 72.0589 209.44 71.8309C209.048 71.5965 208.611 71.4794 208.129 71.4794C207.654 71.4794 207.217 71.5965 206.818 71.8309C206.426 72.0589 206.112 72.3692 205.878 72.7619C205.644 73.1545 205.526 73.5915 205.526 74.0729V79.6304H203.93V70.1304H205.526V71.3179C205.862 70.8745 206.286 70.523 206.799 70.2634C207.312 69.9974 207.87 69.8644 208.471 69.8644C209.181 69.8644 209.827 70.0385 210.409 70.3869C210.998 70.7289 211.464 71.1912 211.806 71.7739C212.154 72.3565 212.328 73.0057 212.328 73.7214ZM219.349 71.7264H217.193L217.183 79.6304H215.587L215.597 71.7264H213.963V70.1304H215.597L215.587 67.1474H217.183L217.193 70.1304H219.349V71.7264ZM225.191 79.8774C224.317 79.8774 223.519 79.6525 222.797 79.2029C222.081 78.7532 221.508 78.1515 221.078 77.3979C220.653 76.6379 220.441 75.7987 220.441 74.8804C220.441 74.1837 220.565 73.5345 220.812 72.9329C221.059 72.3249 221.397 71.7929 221.828 71.3369C222.265 70.8745 222.772 70.5135 223.348 70.2539C223.924 69.9942 224.539 69.8644 225.191 69.8644C225.907 69.8644 226.562 70.01 227.158 70.3014C227.759 70.5864 228.272 70.9854 228.697 71.4984C229.127 72.0114 229.447 72.6067 229.656 73.2844C229.871 73.962 229.951 74.6872 229.894 75.4599H222.142C222.218 75.9982 222.395 76.4795 222.674 76.9039C222.952 77.3219 223.307 77.6544 223.738 77.9014C224.175 78.1484 224.659 78.275 225.191 78.2814C225.761 78.2814 226.277 78.1357 226.74 77.8444C227.202 77.5467 227.576 77.1414 227.861 76.6284L229.485 77.0084C229.105 77.8507 228.532 78.541 227.766 79.0794C226.999 79.6114 226.141 79.8774 225.191 79.8774ZM222.094 74.2059H228.288C228.237 73.6739 228.066 73.1894 227.775 72.7524C227.484 72.309 227.113 71.9544 226.664 71.6884C226.214 71.4224 225.723 71.2894 225.191 71.2894C224.659 71.2894 224.171 71.4192 223.728 71.6789C223.285 71.9385 222.917 72.29 222.626 72.7334C222.341 73.1704 222.164 73.6612 222.094 74.2059ZM240.092 73.7214V79.6304H238.496V74.0729C238.496 73.5915 238.379 73.1545 238.145 72.7619C237.911 72.3692 237.597 72.0589 237.204 71.8309C236.812 71.5965 236.375 71.4794 235.893 71.4794C235.418 71.4794 234.981 71.5965 234.582 71.8309C234.19 72.0589 233.876 72.3692 233.642 72.7619C233.408 73.1545 233.29 73.5915 233.29 74.0729V79.6304H231.694V70.1304H233.29V71.3179C233.626 70.8745 234.05 70.523 234.563 70.2634C235.076 69.9974 235.634 69.8644 236.235 69.8644C236.945 69.8644 237.591 70.0385 238.173 70.3869C238.762 70.7289 239.228 71.1912 239.57 71.7739C239.918 72.3565 240.092 73.0057 240.092 73.7214ZM249.645 70.1304H251.241V79.6304H249.645L249.578 78.0249C249.281 78.5759 248.869 79.0224 248.343 79.3644C247.824 79.7064 247.203 79.8774 246.481 79.8774C245.785 79.8774 245.132 79.7475 244.524 79.4879C243.916 79.2219 243.378 78.8577 242.909 78.3954C242.447 77.9267 242.086 77.3884 241.826 76.7804C241.567 76.1724 241.437 75.5169 241.437 74.8139C241.437 74.1362 241.563 73.4965 241.817 72.8949C242.07 72.2932 242.422 71.7675 242.871 71.3179C243.327 70.8619 243.853 70.5072 244.448 70.2539C245.044 69.9942 245.683 69.8644 246.367 69.8644C247.115 69.8644 247.77 70.0417 248.334 70.3964C248.897 70.7447 249.353 71.1975 249.702 71.7549L249.645 70.1304ZM246.453 78.3289C247.08 78.3289 247.621 78.1769 248.077 77.8729C248.54 77.5625 248.894 77.1445 249.141 76.6189C249.395 76.0932 249.521 75.5137 249.521 74.8804C249.521 74.2344 249.395 73.6517 249.141 73.1324C248.888 72.6067 248.53 72.1919 248.068 71.8879C247.612 71.5775 247.073 71.4224 246.453 71.4224C245.826 71.4224 245.256 71.5775 244.743 71.8879C244.23 72.1982 243.821 72.6162 243.517 73.1419C243.22 73.6612 243.071 74.2407 243.071 74.8804C243.071 75.52 243.226 76.1027 243.536 76.6284C243.847 77.1477 244.258 77.5625 244.771 77.8729C245.284 78.1769 245.845 78.3289 246.453 78.3289ZM261.738 73.7214V79.6304H260.142V74.0729C260.142 73.5915 260.024 73.1545 259.79 72.7619C259.556 72.3692 259.242 72.0589 258.85 71.8309C258.457 71.5965 258.02 71.4794 257.539 71.4794C257.064 71.4794 256.627 71.5965 256.228 71.8309C255.835 72.0589 255.521 72.3692 255.287 72.7619C255.053 73.1545 254.936 73.5915 254.936 74.0729V79.6304H253.34V70.1304H254.936V71.3179C255.271 70.8745 255.696 70.523 256.209 70.2634C256.722 69.9974 257.279 69.8644 257.881 69.8644C258.59 69.8644 259.236 70.0385 259.819 70.3869C260.408 70.7289 260.873 71.1912 261.215 71.7739C261.563 72.3565 261.738 73.0057 261.738 73.7214ZM270.197 77.1224L271.622 77.8919C271.192 78.4935 270.644 78.9749 269.979 79.3359C269.32 79.6969 268.605 79.8774 267.832 79.8774C266.958 79.8774 266.16 79.6525 265.438 79.2029C264.722 78.7532 264.149 78.1515 263.718 77.3979C263.294 76.6379 263.082 75.7987 263.082 74.8804C263.082 74.1837 263.205 73.5345 263.452 72.9329C263.699 72.3249 264.038 71.7929 264.469 71.3369C264.906 70.8745 265.413 70.5135 265.989 70.2539C266.565 69.9942 267.18 69.8644 267.832 69.8644C268.605 69.8644 269.32 70.0449 269.979 70.4059C270.644 70.7669 271.192 71.2514 271.622 71.8594L270.197 72.6289C269.893 72.2552 269.532 71.967 269.114 71.7644C268.696 71.5617 268.269 71.4604 267.832 71.4604C267.243 71.4604 266.708 71.6187 266.226 71.9354C265.751 72.2457 265.375 72.6605 265.096 73.1799C264.817 73.6992 264.678 74.266 264.678 74.8804C264.678 75.4947 264.817 76.0615 265.096 76.5809C265.381 77.0939 265.761 77.5055 266.236 77.8159C266.717 78.1262 267.249 78.2814 267.832 78.2814C268.301 78.2814 268.741 78.1737 269.152 77.9584C269.564 77.743 269.912 77.4644 270.197 77.1224ZM277.55 79.8774C276.676 79.8774 275.878 79.6525 275.156 79.2029C274.441 78.7532 273.868 78.1515 273.437 77.3979C273.013 76.6379 272.8 75.7987 272.8 74.8804C272.8 74.1837 272.924 73.5345 273.171 72.9329C273.418 72.3249 273.757 71.7929 274.187 71.3369C274.624 70.8745 275.131 70.5135 275.707 70.2539C276.284 69.9942 276.898 69.8644 277.55 69.8644C278.266 69.8644 278.922 70.01 279.517 70.3014C280.119 70.5864 280.632 70.9854 281.056 71.4984C281.487 72.0114 281.806 72.6067 282.015 73.2844C282.231 73.962 282.31 74.6872 282.253 75.4599H274.501C274.577 75.9982 274.754 76.4795 275.033 76.9039C275.312 77.3219 275.666 77.6544 276.097 77.9014C276.534 78.1484 277.018 78.275 277.55 78.2814C278.12 78.2814 278.637 78.1357 279.099 77.8444C279.561 77.5467 279.935 77.1414 280.22 76.6284L281.844 77.0084C281.464 77.8507 280.891 78.541 280.125 79.0794C279.359 79.6114 278.5 79.8774 277.55 79.8774ZM274.453 74.2059H280.647C280.597 73.6739 280.426 73.1894 280.134 72.7524C279.843 72.309 279.473 71.9544 279.023 71.6884C278.573 71.4224 278.082 71.2894 277.55 71.2894C277.018 71.2894 276.531 71.4192 276.087 71.6789C275.644 71.9385 275.277 72.29 274.985 72.7334C274.7 73.1704 274.523 73.6612 274.453 74.2059ZM293.404 66.3304H295.332L300.168 79.6304H298.477L297.489 76.9134H291.247L290.269 79.6304H288.568L293.404 66.3304ZM291.836 75.3174H296.9L294.363 68.3729L291.836 75.3174ZM302.099 79.6304V65.3804H303.695V79.6304H302.099ZM310.265 79.8774C309.391 79.8774 308.593 79.6525 307.871 79.2029C307.155 78.7532 306.582 78.1515 306.151 77.3979C305.727 76.6379 305.515 75.7987 305.515 74.8804C305.515 74.1837 305.638 73.5345 305.885 72.9329C306.132 72.3249 306.471 71.7929 306.902 71.3369C307.339 70.8745 307.845 70.5135 308.422 70.2539C308.998 69.9942 309.612 69.8644 310.265 69.8644C310.98 69.8644 311.636 70.01 312.231 70.3014C312.833 70.5864 313.346 70.9854 313.77 71.4984C314.201 72.0114 314.521 72.6067 314.73 73.2844C314.945 73.962 315.024 74.6872 314.967 75.4599H307.215C307.291 75.9982 307.468 76.4795 307.747 76.9039C308.026 77.3219 308.38 77.6544 308.811 77.9014C309.248 78.1484 309.733 78.275 310.265 78.2814C310.835 78.2814 311.351 78.1357 311.813 77.8444C312.275 77.5467 312.649 77.1414 312.934 76.6284L314.559 77.0084C314.179 77.8507 313.605 78.541 312.839 79.0794C312.073 79.6114 311.215 79.8774 310.265 79.8774ZM307.168 74.2059H313.362C313.311 73.6739 313.14 73.1894 312.849 72.7524C312.557 72.309 312.187 71.9544 311.737 71.6884C311.287 71.4224 310.797 71.2894 310.265 71.2894C309.733 71.2894 309.245 71.4192 308.802 71.6789C308.358 71.9385 307.991 72.29 307.7 72.7334C307.415 73.1704 307.237 73.6612 307.168 74.2059ZM316.768 79.6304V70.1304H318.364V71.3179C318.7 70.8745 319.124 70.523 319.637 70.2634C320.15 69.9974 320.707 69.8644 321.309 69.8644C321.676 69.8644 322.031 69.9119 322.373 70.0069L321.727 71.6029C321.467 71.5205 321.214 71.4794 320.967 71.4794C320.492 71.4794 320.055 71.5965 319.656 71.8309C319.263 72.0589 318.95 72.3692 318.715 72.7619C318.481 73.1545 318.364 73.5915 318.364 74.0729V79.6304H316.768ZM328.828 71.7264H326.672L326.662 79.6304H325.066L325.076 71.7264H323.442V70.1304H325.076L325.066 67.1474H326.662L326.672 70.1304H328.828V71.7264Z" fill="#08391E"/>
<rect x="171" y="99.6304" width="243" height="10" rx="2" fill="#E3E9E0"/>
<rect x="171" y="121.63" width="183" height="10" rx="2" fill="#E3E9E0"/>
<rect x="24" y="167.63" width="281" height="73" rx="8" fill="white"/>
<g clip-path="url(#clip1_229_5266)">
<path d="M62.3718 197.048C62.3723 196.068 62.1229 195.106 61.6487 194.258C61.1745 193.41 60.4924 192.707 59.6714 192.219C58.8503 191.732 57.9196 191.478 56.9732 191.483C56.0268 191.487 55.0985 191.751 54.2821 192.246C53.4656 192.742 52.7901 193.452 52.3238 194.304C51.8576 195.157 51.6171 196.122 51.6267 197.101C51.6364 198.081 51.8959 199.041 52.3789 199.883C52.8618 200.726 53.5512 201.421 54.3773 201.899L54.4886 198.21C54.4889 197.485 54.7675 196.789 55.263 196.277C55.7584 195.764 56.4303 195.476 57.1308 195.476H57.2808C57.5541 195.476 57.8248 195.532 58.0773 195.64C58.3299 195.748 58.5594 195.907 58.7527 196.107C58.946 196.307 59.0993 196.544 59.2039 196.806C59.3086 197.067 59.3624 197.347 59.3624 197.63V202.036C60.2644 201.579 61.0245 200.87 61.5565 199.988C62.0884 199.106 62.3709 198.087 62.3718 197.048Z" fill="#AAD4C8"/>
<path d="M59.3631 197.63C59.3631 197.347 59.3092 197.067 59.2046 196.806C59.1 196.544 58.9467 196.307 58.7534 196.107C58.5601 195.907 58.3306 195.748 58.078 195.64C57.8255 195.532 57.5548 195.476 57.2815 195.476H57.1315C56.4308 195.476 55.7588 195.764 55.2632 196.276C54.7676 196.789 54.4889 197.485 54.4886 198.21L54.3766 201.9L54.1302 210.032C54.0739 210.283 54.042 215.935 54.042 215.935C53.5805 215.447 53.0667 214.89 52.6052 214.356C51.5274 213.112 49.5469 212.274 48.2309 212.119C47.5379 212.036 47.0092 212.135 46.6563 212.409C46.5412 212.5 46.432 212.599 46.3291 212.705C45.6504 213.397 45.1373 214.516 45.6117 215.336C45.8153 215.694 46.169 215.932 46.5436 216.179C47.0391 216.512 47.8746 216.873 48.503 217.702C49.5544 219.096 51.9903 222.208 53.4868 223.874C53.7983 224.075 54.4567 224.755 54.7682 224.928C55.713 225.553 56.4847 226.141 56.7521 226.459C56.9611 226.707 58.1977 227.363 58.1977 227.363C59.1975 228.018 61.0171 228.628 63.1191 228.628C65.221 228.628 67.1235 228.758 68.5311 227.475H68.6058L68.6431 227.378C70.0758 226.019 70.967 224.136 70.967 222.055V212.102C70.967 211.611 70.8632 209.98 69.5349 209.489C68.9612 209.28 68.3319 209.31 67.7791 209.572L67.659 209.578H67.6223C67.3909 208.68 66.8146 208.102 65.9608 207.946C64.9305 207.762 64.2165 208.08 63.789 208.402C63.362 207.452 62.5062 206.958 61.3456 207.058C60.4768 207.134 59.8307 207.576 59.3617 208.159V197.63H59.3631Z" fill="#1D5C3A"/>
<path d="M68.9869 206.282L70.0531 207.511C70.1014 207.567 70.1611 207.611 70.228 207.641C70.2949 207.67 70.3672 207.683 70.4398 207.68C70.5123 207.677 70.5832 207.657 70.6474 207.621C70.7115 207.586 70.7673 207.537 70.8106 207.476C72.8894 204.494 74.0058 200.908 74.0005 197.23C74.0005 187.524 66.3738 179.63 57.0009 179.63C56.3525 179.63 55.7047 179.668 55.0604 179.742C47.2362 180.644 40.9453 187.181 40.0996 195.286C39.6355 199.605 40.7351 203.948 43.1857 207.476C43.229 207.537 43.2848 207.586 43.349 207.622C43.4132 207.657 43.4842 207.677 43.5569 207.681C43.6295 207.684 43.702 207.671 43.7691 207.642C43.8361 207.612 43.896 207.568 43.9445 207.512L45.0094 206.285C45.0823 206.2 45.1254 206.092 45.1316 205.979C45.1379 205.866 45.107 205.754 45.044 205.661C43.3193 203.054 42.4399 199.947 42.5328 196.789C42.7466 189.007 48.8 182.63 56.3086 182.264C64.6106 181.842 71.4723 188.728 71.4723 197.23C71.4722 200.239 70.5928 203.179 68.9496 205.661C68.8877 205.754 68.8578 205.866 68.8646 205.978C68.8713 206.091 68.9144 206.198 68.9869 206.282Z" fill="#1D5C3A"/>
<path d="M64.2083 200.776L65.337 202.077C65.3906 202.138 65.4579 202.185 65.5331 202.214C65.6082 202.243 65.689 202.252 65.7684 202.24C65.8477 202.229 65.9233 202.198 65.9884 202.15C66.0535 202.102 66.1062 202.038 66.142 201.964C66.8593 200.496 67.2314 198.874 67.2279 197.23C67.2279 192.241 63.8085 187.885 59.0942 186.864C57.7101 186.563 56.2805 186.563 54.8964 186.864C50.1855 187.886 46.7661 192.244 46.7661 197.23C46.7631 198.874 47.1351 200.496 47.8521 201.964C47.888 202.038 47.9409 202.102 48.0061 202.15C48.0713 202.198 48.1469 202.229 48.2264 202.24C48.3058 202.252 48.3867 202.242 48.462 202.214C48.5373 202.185 48.6047 202.138 48.6584 202.077L49.7857 200.776C49.8473 200.705 49.8879 200.617 49.9029 200.522C49.918 200.428 49.9067 200.331 49.8706 200.243C49.4893 199.287 49.2927 198.264 49.2916 197.23C49.2912 196.052 49.5427 194.889 50.0281 193.824C50.5135 192.759 51.2207 191.818 52.099 191.07C52.9773 190.321 54.0048 189.783 55.1078 189.495C56.2107 189.206 57.3617 189.174 58.478 189.401C59.5943 189.628 60.6483 190.108 61.5641 190.806C62.48 191.505 63.2351 192.405 63.7751 193.441C64.3151 194.478 64.6267 195.625 64.6874 196.801C64.7481 197.977 64.5564 199.153 64.1262 200.243C64.09 200.331 64.0785 200.427 64.093 200.522C64.1075 200.616 64.1475 200.704 64.2083 200.776Z" fill="#82BFAB"/>
</g>
<rect x="90" y="181.63" width="199" height="45" rx="8" fill="#CAEE0E"/>
<path d="M127.824 210.877C127.108 210.877 126.418 210.767 125.753 210.545C125.088 210.317 124.505 209.994 124.005 209.576C123.511 209.158 123.159 208.661 122.95 208.084L124.441 207.524C124.568 207.879 124.803 208.189 125.145 208.455C125.493 208.715 125.901 208.917 126.37 209.063C126.839 209.209 127.323 209.281 127.824 209.281C128.394 209.281 128.922 209.19 129.41 209.006C129.904 208.816 130.303 208.553 130.607 208.217C130.911 207.882 131.063 207.489 131.063 207.039C131.063 206.577 130.905 206.2 130.588 205.909C130.271 205.611 129.866 205.377 129.372 205.206C128.878 205.029 128.362 204.892 127.824 204.797C126.905 204.645 126.082 204.43 125.354 204.151C124.632 203.866 124.058 203.471 123.634 202.964C123.216 202.457 123.007 201.789 123.007 200.959C123.007 200.187 123.229 199.512 123.672 198.936C124.122 198.36 124.714 197.913 125.449 197.596C126.183 197.28 126.975 197.121 127.824 197.121C128.527 197.121 129.207 197.232 129.866 197.454C130.531 197.669 131.117 197.986 131.624 198.404C132.13 198.822 132.494 199.332 132.716 199.933L131.206 200.484C131.079 200.123 130.841 199.813 130.493 199.553C130.151 199.287 129.746 199.085 129.277 198.945C128.815 198.8 128.33 198.727 127.824 198.727C127.26 198.721 126.734 198.812 126.247 199.002C125.759 199.192 125.363 199.455 125.059 199.791C124.755 200.127 124.603 200.516 124.603 200.959C124.603 201.491 124.742 201.9 125.021 202.185C125.306 202.464 125.692 202.673 126.18 202.812C126.668 202.951 127.216 203.075 127.824 203.182C128.685 203.328 129.483 203.559 130.218 203.876C130.952 204.186 131.541 204.601 131.984 205.12C132.434 205.64 132.659 206.279 132.659 207.039C132.659 207.812 132.434 208.487 131.984 209.063C131.541 209.639 130.952 210.086 130.218 210.402C129.483 210.719 128.685 210.877 127.824 210.877ZM134.501 207.02V201.13H136.097V206.669C136.097 207.15 136.214 207.587 136.449 207.98C136.683 208.373 136.996 208.686 137.389 208.92C137.788 209.148 138.225 209.262 138.7 209.262C139.181 209.262 139.615 209.148 140.002 208.92C140.394 208.686 140.708 208.373 140.942 207.98C141.176 207.587 141.294 207.15 141.294 206.669V201.13H142.89L142.899 210.63H141.303L141.294 209.424C140.958 209.867 140.534 210.222 140.021 210.488C139.508 210.748 138.953 210.877 138.358 210.877C137.649 210.877 137 210.706 136.411 210.364C135.828 210.016 135.362 209.551 135.014 208.968C134.672 208.385 134.501 207.736 134.501 207.02ZM149.926 200.864C150.851 200.864 151.69 201.089 152.444 201.539C153.204 201.989 153.808 202.593 154.258 203.353C154.708 204.107 154.933 204.946 154.933 205.871C154.933 206.561 154.803 207.21 154.543 207.818C154.283 208.42 153.922 208.952 153.46 209.414C153.004 209.87 152.472 210.228 151.864 210.488C151.262 210.748 150.616 210.877 149.926 210.877C149.191 210.877 148.552 210.706 148.007 210.364C147.469 210.016 147.038 209.563 146.715 209.006V210.63H145.119V196.38H146.715V202.736C147.038 202.179 147.469 201.729 148.007 201.387C148.552 201.039 149.191 200.864 149.926 200.864ZM149.907 209.319C150.534 209.319 151.104 209.164 151.617 208.854C152.13 208.544 152.539 208.129 152.843 207.609C153.147 207.084 153.299 206.504 153.299 205.871C153.299 205.225 153.143 204.642 152.833 204.123C152.523 203.597 152.111 203.182 151.598 202.878C151.085 202.568 150.521 202.413 149.907 202.413C149.286 202.413 148.745 202.568 148.283 202.878C147.827 203.189 147.472 203.607 147.219 204.132C146.972 204.658 146.848 205.238 146.848 205.871C146.848 206.511 146.972 207.093 147.219 207.619C147.472 208.138 147.83 208.553 148.292 208.863C148.754 209.167 149.293 209.319 149.907 209.319ZM156.712 210.63V201.13H158.308V202.318C158.643 201.875 159.065 201.523 159.571 201.263C160.084 200.997 160.642 200.864 161.243 200.864C161.946 200.864 162.589 201.035 163.172 201.377C163.754 201.719 164.214 202.172 164.549 202.736C164.885 202.172 165.341 201.719 165.917 201.377C166.5 201.035 167.14 200.864 167.836 200.864C168.552 200.864 169.201 201.039 169.784 201.387C170.366 201.729 170.829 202.191 171.171 202.774C171.519 203.357 171.693 204.006 171.693 204.721V210.63H170.097V205.101C170.097 204.633 169.983 204.199 169.755 203.8C169.527 203.401 169.22 203.081 168.834 202.84C168.447 202.6 168.02 202.479 167.551 202.479C167.083 202.479 166.655 202.593 166.269 202.821C165.882 203.043 165.575 203.353 165.347 203.752C165.119 204.145 165.005 204.595 165.005 205.101V210.63H163.409V205.101C163.409 204.595 163.295 204.145 163.067 203.752C162.839 203.353 162.529 203.043 162.136 202.821C161.75 202.593 161.322 202.479 160.854 202.479C160.391 202.479 159.964 202.6 159.571 202.84C159.185 203.081 158.878 203.401 158.65 203.8C158.422 204.199 158.308 204.633 158.308 205.101V210.63H156.712ZM173.796 201.13H175.392V210.63H173.796V201.13ZM174.613 199.582C174.36 199.582 174.148 199.5 173.977 199.335C173.806 199.17 173.72 198.964 173.72 198.717C173.72 198.47 173.806 198.265 173.977 198.1C174.148 197.935 174.357 197.853 174.604 197.853C174.851 197.853 175.06 197.935 175.231 198.1C175.402 198.265 175.487 198.47 175.487 198.717C175.487 198.964 175.402 199.17 175.231 199.335C175.066 199.5 174.86 199.582 174.613 199.582ZM182.795 202.726H180.639L180.629 210.63H179.033L179.043 202.726H177.409V201.13H179.043L179.033 198.147H180.629L180.639 201.13H182.795V202.726ZM189.463 210.63V197.33H194.137C194.846 197.33 195.486 197.505 196.056 197.853C196.632 198.201 197.088 198.673 197.424 199.268C197.766 199.857 197.937 200.516 197.937 201.244C197.937 201.884 197.81 202.467 197.557 202.992C197.304 203.518 196.955 203.958 196.512 204.313C196.075 204.661 195.578 204.902 195.02 205.035L198.25 210.63H196.407L193.234 205.168H191.059V210.63H189.463ZM191.059 203.572H193.975C194.406 203.572 194.802 203.467 195.163 203.258C195.524 203.043 195.809 202.755 196.018 202.394C196.233 202.027 196.341 201.615 196.341 201.159C196.341 200.697 196.233 200.285 196.018 199.924C195.809 199.557 195.524 199.268 195.163 199.059C194.802 198.844 194.406 198.736 193.975 198.736H191.059V203.572ZM204.196 210.877C203.322 210.877 202.524 210.653 201.802 210.203C201.087 209.753 200.514 209.152 200.083 208.398C199.659 207.638 199.446 206.799 199.446 205.88C199.446 205.184 199.57 204.535 199.817 203.933C200.064 203.325 200.403 202.793 200.833 202.337C201.27 201.875 201.777 201.514 202.353 201.254C202.93 200.994 203.544 200.864 204.196 200.864C204.912 200.864 205.568 201.01 206.163 201.301C206.765 201.586 207.278 201.985 207.702 202.498C208.133 203.011 208.452 203.607 208.661 204.284C208.877 204.962 208.956 205.687 208.899 206.46H201.147C201.223 206.998 201.4 207.48 201.679 207.904C201.958 208.322 202.312 208.654 202.743 208.901C203.18 209.148 203.664 209.275 204.196 209.281C204.766 209.281 205.283 209.136 205.745 208.844C206.207 208.547 206.581 208.141 206.866 207.628L208.49 208.008C208.11 208.851 207.537 209.541 206.771 210.079C206.005 210.611 205.146 210.877 204.196 210.877ZM201.099 205.206H207.293C207.243 204.674 207.072 204.189 206.78 203.752C206.489 203.309 206.119 202.954 205.669 202.688C205.219 202.422 204.728 202.289 204.196 202.289C203.664 202.289 203.177 202.419 202.733 202.679C202.29 202.939 201.923 203.29 201.631 203.733C201.346 204.17 201.169 204.661 201.099 205.206ZM215.071 210.896C214.153 210.896 213.314 210.672 212.554 210.222C211.8 209.772 211.198 209.167 210.749 208.407C210.299 207.647 210.074 206.805 210.074 205.88C210.074 205.19 210.204 204.544 210.464 203.942C210.723 203.341 211.081 202.812 211.537 202.356C211.999 201.894 212.531 201.533 213.133 201.273C213.735 201.013 214.381 200.883 215.071 200.883C215.806 200.883 216.442 201.058 216.981 201.406C217.525 201.748 217.959 202.198 218.282 202.755V201.13H219.878V215.38H218.282V209.025C217.959 209.582 217.525 210.035 216.981 210.383C216.442 210.725 215.806 210.896 215.071 210.896ZM215.09 202.432C214.463 202.432 213.893 202.587 213.38 202.897C212.867 203.208 212.459 203.626 212.155 204.151C211.857 204.671 211.708 205.247 211.708 205.88C211.708 206.526 211.86 207.112 212.164 207.638C212.474 208.157 212.886 208.572 213.399 208.882C213.912 209.186 214.476 209.338 215.09 209.338C215.717 209.338 216.259 209.183 216.715 208.873C217.171 208.563 217.522 208.145 217.769 207.619C218.022 207.093 218.149 206.514 218.149 205.88C218.149 205.241 218.022 204.661 217.769 204.142C217.522 203.623 217.167 203.208 216.705 202.897C216.249 202.587 215.711 202.432 215.09 202.432ZM221.82 207.02V201.13H223.416V206.669C223.416 207.15 223.533 207.587 223.767 207.98C224.001 208.373 224.315 208.686 224.708 208.92C225.107 209.148 225.544 209.262 226.019 209.262C226.5 209.262 226.934 209.148 227.32 208.92C227.713 208.686 228.026 208.373 228.261 207.98C228.495 207.587 228.612 207.15 228.612 206.669V201.13H230.208L230.218 210.63H228.622L228.612 209.424C228.276 209.867 227.852 210.222 227.339 210.488C226.826 210.748 226.272 210.877 225.677 210.877C224.967 210.877 224.318 210.706 223.729 210.364C223.146 210.016 222.681 209.551 222.333 208.968C221.991 208.385 221.82 207.736 221.82 207.02ZM236.414 210.877C235.54 210.877 234.742 210.653 234.02 210.203C233.304 209.753 232.731 209.152 232.3 208.398C231.876 207.638 231.664 206.799 231.664 205.88C231.664 205.184 231.787 204.535 232.034 203.933C232.281 203.325 232.62 202.793 233.051 202.337C233.488 201.875 233.994 201.514 234.571 201.254C235.147 200.994 235.761 200.864 236.414 200.864C237.129 200.864 237.785 201.01 238.38 201.301C238.982 201.586 239.495 201.985 239.919 202.498C240.35 203.011 240.67 203.607 240.879 204.284C241.094 204.962 241.173 205.687 241.116 206.46H233.364C233.44 206.998 233.617 207.48 233.896 207.904C234.175 208.322 234.529 208.654 234.96 208.901C235.397 209.148 235.882 209.275 236.414 209.281C236.984 209.281 237.5 209.136 237.962 208.844C238.424 208.547 238.798 208.141 239.083 207.628L240.708 208.008C240.328 208.851 239.754 209.541 238.988 210.079C238.222 210.611 237.364 210.877 236.414 210.877ZM233.317 205.206H239.511C239.46 204.674 239.289 204.189 238.998 203.752C238.706 203.309 238.336 202.954 237.886 202.688C237.436 202.422 236.946 202.289 236.414 202.289C235.882 202.289 235.394 202.419 234.951 202.679C234.507 202.939 234.14 203.29 233.849 203.733C233.564 204.17 233.386 204.661 233.317 205.206ZM245.852 210.811C245.339 210.792 244.838 210.697 244.351 210.526C243.869 210.349 243.445 210.111 243.078 209.813C242.717 209.509 242.454 209.161 242.289 208.768L243.657 208.179C243.752 208.395 243.923 208.597 244.17 208.787C244.417 208.977 244.702 209.129 245.025 209.243C245.348 209.357 245.674 209.414 246.004 209.414C246.352 209.414 246.678 209.361 246.982 209.253C247.286 209.145 247.533 208.987 247.723 208.778C247.919 208.563 248.018 208.306 248.018 208.008C248.018 207.692 247.91 207.445 247.695 207.267C247.486 207.084 247.22 206.941 246.897 206.84C246.58 206.732 246.257 206.631 245.928 206.536C245.275 206.371 244.693 206.175 244.18 205.947C243.667 205.713 243.261 205.418 242.964 205.063C242.672 204.702 242.527 204.243 242.527 203.686C242.527 203.097 242.688 202.587 243.011 202.156C243.34 201.726 243.771 201.393 244.303 201.159C244.835 200.925 245.405 200.807 246.013 200.807C246.779 200.807 247.479 200.972 248.113 201.301C248.746 201.631 249.218 202.077 249.528 202.641L248.246 203.391C248.138 203.163 247.973 202.964 247.752 202.793C247.53 202.616 247.277 202.476 246.992 202.375C246.707 202.274 246.415 202.22 246.118 202.213C245.75 202.201 245.405 202.248 245.082 202.356C244.765 202.464 244.509 202.628 244.313 202.85C244.123 203.065 244.028 203.334 244.028 203.657C244.028 203.974 244.129 204.215 244.332 204.379C244.541 204.544 244.81 204.677 245.139 204.778C245.475 204.873 245.839 204.984 246.232 205.111C246.808 205.295 247.346 205.507 247.847 205.747C248.347 205.988 248.749 206.289 249.053 206.65C249.363 207.011 249.515 207.457 249.509 207.989C249.509 208.572 249.335 209.082 248.987 209.519C248.638 209.95 248.185 210.279 247.628 210.507C247.077 210.735 246.485 210.836 245.852 210.811ZM256.258 202.726H254.101L254.092 210.63H252.496L252.505 202.726H250.871V201.13H252.505L252.496 198.147H254.092L254.101 201.13H256.258V202.726Z" fill="#08391E"/>
<g clip-path="url(#clip2_229_5266)">
<rect x="150" y="264.63" width="271.09" height="100.65" rx="8" fill="white"/>
<g style="mix-blend-mode:hard-light">
<path d="M407.1 264.63H163.99C156.264 264.63 150 270.894 150 278.62V351.29C150 359.017 156.264 365.28 163.99 365.28H407.1C414.826 365.28 421.09 359.017 421.09 351.29V278.62C421.09 270.894 414.826 264.63 407.1 264.63Z" fill="#E3E9E0"/>
</g>
<path d="M230.92 305.51C227.776 296.717 221.267 289.533 212.826 285.538C204.385 281.544 194.703 281.066 185.91 284.21C177.117 287.354 169.933 293.863 165.938 302.304C161.944 310.745 161.466 320.427 164.61 329.22C164.88 329.97 165.17 330.7 165.48 331.42C166.855 334.595 168.695 337.548 170.94 340.18C176.274 346.477 183.649 350.699 191.779 352.112C199.909 353.524 208.277 352.036 215.422 347.908C222.567 343.779 228.034 337.273 230.871 329.524C233.707 321.775 233.731 313.276 230.94 305.51H230.92ZM206.65 342.22C201.601 344.028 196.122 344.255 190.941 342.87C185.76 341.486 181.124 338.556 177.65 334.47C175.967 332.496 174.589 330.282 173.56 327.9C173.33 327.37 173.11 326.81 172.91 326.26C171.744 322.994 171.234 319.529 171.407 316.065C171.58 312.601 172.434 309.205 173.92 306.071C175.406 302.937 177.494 300.127 180.066 297.8C182.638 295.473 185.643 293.676 188.91 292.51C192.188 291.282 195.677 290.718 199.175 290.851C202.672 290.984 206.109 291.811 209.284 293.284C212.459 294.757 215.309 296.847 217.669 299.432C220.029 302.017 221.852 305.045 223.031 308.341C224.209 311.637 224.721 315.134 224.536 318.629C224.351 322.125 223.472 325.548 221.952 328.701C220.431 331.853 218.299 334.672 215.678 336.993C213.058 339.314 210.003 341.091 206.69 342.22H206.65Z" fill="#53C152"/>
<path d="M172.57 309.5L164.15 306.87C166.346 299.885 170.659 293.754 176.492 289.327C182.326 284.9 189.391 282.396 196.71 282.16L196.97 290.97C194.206 291.06 191.473 291.579 188.87 292.51C185.021 293.884 181.545 296.134 178.716 299.083C175.887 302.032 173.783 305.598 172.57 309.5Z" fill="#CAEE0E"/>
<path d="M173.56 327.9L165.48 331.39C165.17 330.67 164.88 329.94 164.61 329.19C162.026 321.989 161.864 314.141 164.15 306.84L172.57 309.47C170.849 314.944 170.968 320.831 172.91 326.23C173.11 326.81 173.33 327.39 173.56 327.9Z" fill="#E44F02"/>
<path d="M170.94 340.18C168.695 337.548 166.855 334.595 165.48 331.42L173.56 327.9C174.589 330.282 175.967 332.496 177.65 334.47L170.94 340.18Z" fill="#1D5C3A"/>
<path d="M256 307.63H247C245.895 307.63 245 308.526 245 309.63V349.63C245 350.735 245.895 351.63 247 351.63H256C257.105 351.63 258 350.735 258 349.63V309.63C258 308.526 257.105 307.63 256 307.63Z" fill="#E3E9E0"/>
<path d="M282 316.63H273C271.895 316.63 271 317.526 271 318.63V349.63C271 350.735 271.895 351.63 273 351.63H282C283.105 351.63 284 350.735 284 349.63V318.63C284 317.526 283.105 316.63 282 316.63Z" fill="#E3E9E0"/>
<path d="M308 309.63H299C297.895 309.63 297 310.526 297 311.63V349.63C297 350.735 297.895 351.63 299 351.63H308C309.105 351.63 310 350.735 310 349.63V311.63C310 310.526 309.105 309.63 308 309.63Z" fill="#E3E9E0"/>
<path d="M334 323.63H325C323.895 323.63 323 324.526 323 325.63V349.63C323 350.735 323.895 351.63 325 351.63H334C335.105 351.63 336 350.735 336 349.63V325.63C336 324.526 335.105 323.63 334 323.63Z" fill="#E3E9E0"/>
<path d="M360 311.63H351C349.895 311.63 349 312.526 349 313.63V349.63C349 350.735 349.895 351.63 351 351.63H360C361.105 351.63 362 350.735 362 349.63V313.63C362 312.526 361.105 311.63 360 311.63Z" fill="#E3E9E0"/>
<path d="M408 311.63H399C397.895 311.63 397 312.526 397 313.63V349.63C397 350.735 397.895 351.63 399 351.63H408C409.105 351.63 410 350.735 410 349.63V313.63C410 312.526 409.105 311.63 408 311.63Z" fill="#E3E9E0"/>
<path d="M387 305.63H377C375.895 305.63 375 306.526 375 307.63V349.63C375 350.735 375.895 351.63 377 351.63H387C388.105 351.63 389 350.735 389 349.63V307.63C389 306.526 388.105 305.63 387 305.63Z" fill="#E3E9E0"/>
<path d="M256 324.63H247C245.895 324.63 245 325.526 245 326.63V349.63C245 350.735 245.895 351.63 247 351.63H256C257.105 351.63 258 350.735 258 349.63V326.63C258 325.526 257.105 324.63 256 324.63Z" fill="#B9C9B1"/>
<path d="M282 329.63H273C271.895 329.63 271 330.526 271 331.63V349.63C271 350.735 271.895 351.63 273 351.63H282C283.105 351.63 284 350.735 284 349.63V331.63C284 330.526 283.105 329.63 282 329.63Z" fill="#B9C9B1"/>
<path d="M308 325.63H299C297.895 325.63 297 326.526 297 327.63V349.63C297 350.735 297.895 351.63 299 351.63H308C309.105 351.63 310 350.735 310 349.63V327.63C310 326.526 309.105 325.63 308 325.63Z" fill="#B9C9B1"/>
<path d="M334 333.63H325C323.895 333.63 323 334.526 323 335.63V349.63C323 350.735 323.895 351.63 325 351.63H334C335.105 351.63 336 350.735 336 349.63V335.63C336 334.526 335.105 333.63 334 333.63Z" fill="#B9C9B1"/>
<path d="M360 326.63H351C349.895 326.63 349 327.526 349 328.63V349.63C349 350.735 349.895 351.63 351 351.63H360C361.105 351.63 362 350.735 362 349.63V328.63C362 327.526 361.105 326.63 360 326.63Z" fill="#B9C9B1"/>
<path d="M408 326.63H399C397.895 326.63 397 327.526 397 328.63V349.63C397 350.735 397.895 351.63 399 351.63H408C409.105 351.63 410 350.735 410 349.63V328.63C410 327.526 409.105 326.63 408 326.63Z" fill="#B9C9B1"/>
<path d="M387 322.63H377C375.895 322.63 375 323.526 375 324.63V349.63C375 350.735 375.895 351.63 377 351.63H387C388.105 351.63 389 350.735 389 349.63V324.63C389 323.526 388.105 322.63 387 322.63Z" fill="#B9C9B1"/>
<path d="M243.43 285.73H405.43C406.562 285.73 407.48 284.813 407.48 283.68V281.44C407.48 280.308 406.562 279.39 405.43 279.39H243.43C242.298 279.39 241.38 280.308 241.38 281.44V283.68C241.38 284.813 242.298 285.73 243.43 285.73Z" fill="#E3E9E0"/>
<path d="M243.43 296.8H405.43C406.562 296.8 407.48 295.882 407.48 294.75V292.51C407.48 291.378 406.562 290.46 405.43 290.46H243.43C242.298 290.46 241.38 291.378 241.38 292.51V294.75C241.38 295.882 242.298 296.8 243.43 296.8Z" fill="#F3FBF4"/>
</g>
</g>
<defs>
<clipPath id="clip0_229_5266">
<rect width="445" height="410" fill="white" transform="translate(0 0.130371)"/>
</clipPath>
<clipPath id="clip1_229_5266">
<rect width="34" height="49" fill="white" transform="translate(40 179.63)"/>
</clipPath>
<clipPath id="clip2_229_5266">
<rect x="150" y="264.63" width="271.09" height="100.65" rx="8" fill="white"/>
</clipPath>
</defs>
</svg>
