<svg width="469" height="392" viewBox="0 0 469 392" fill="none" xmlns="http://www.w3.org/2000/svg">
<rect x="40" y="0.139526" width="429" height="355" rx="16" fill="#DBF2DE"/>
<rect x="64" y="32.238" width="304" height="64" rx="8" fill="white"/>
<rect x="80" y="44.238" width="40" height="40" rx="20" fill="#55EA54" fill-opacity="0.12"/>
<path d="M102.43 71.0961C102.403 72.7527 101.037 74.0735 99.3808 74.0462C97.7241 74.0188 96.4033 72.6537 96.4307 70.9971" stroke="#21D120" stroke-width="1.5" stroke-linecap="round" stroke-linejoin="round"/>
<path d="M101.436 58.3166C101.879 57.8739 102.157 57.2654 102.168 56.5898C102.191 55.2093 101.091 54.0717 99.71 54.0489C98.3295 54.0262 97.1919 55.1268 97.1691 56.5073C97.1579 57.1829 97.4158 57.8002 97.8438 58.2573M105.557 63.3467C105.58 61.9677 104.97 60.6348 103.861 59.6412C102.752 58.6476 101.235 58.0746 99.644 58.0484C98.0529 58.0221 96.518 58.5447 95.3768 59.5012C94.2357 60.4577 93.5818 61.7698 93.559 63.1487C93.5214 65.4302 92.9281 67.0894 92.2024 68.2717C91.3753 69.6192 90.9618 70.2929 90.975 70.4557C90.9901 70.6419 91.0226 70.7012 91.1716 70.8139C91.3018 70.9125 91.9641 70.9234 93.2886 70.9453L105.571 71.1479C106.895 71.1698 107.557 71.1807 107.691 71.0865C107.843 70.9787 107.878 70.9206 107.899 70.735C107.918 70.5727 107.526 69.8857 106.744 68.5116C106.058 67.3061 105.52 65.6282 105.557 63.3467Z" stroke="#21D120" stroke-width="1.5" stroke-linecap="round" stroke-linejoin="round"/>
<rect x="132" y="48.238" width="220" height="10" rx="2" fill="#E3E9E0"/>
<rect x="132" y="70.238" width="166" height="10" rx="2" fill="#E3E9E0"/>
<rect x="90" y="120.238" width="329" height="64" rx="8" fill="white"/>
<path d="M107 152.238C107 141.192 115.954 132.238 127 132.238C138.046 132.238 147 141.192 147 152.238C147 163.284 138.046 172.238 127 172.238C115.954 172.238 107 163.284 107 152.238Z" fill="#55EA54" fill-opacity="0.12"/>
<path opacity="0.4" d="M130.184 143.689L130.209 142.189M134.106 144.814L135.184 143.771M135.111 148.771L136.611 148.796" stroke="#21D120" stroke-width="1.5" stroke-linecap="round" stroke-linejoin="round"/>
<path d="M136.477 153.294C135.892 158.338 131.564 162.214 126.379 162.129C120.857 162.038 116.455 157.487 116.546 151.965C116.631 146.78 120.648 142.583 125.709 142.164" stroke="#21D120" stroke-width="1.4" stroke-linecap="round" stroke-linejoin="round"/>
<path d="M129.254 150.974C129.266 150.232 128.942 149.514 128.353 148.979C127.763 148.445 126.957 148.136 126.111 148.122C125.265 148.108 124.449 148.39 123.842 148.905C123.235 149.42 122.887 150.127 122.875 150.869C122.855 152.098 122.539 152.991 122.153 153.628C121.713 154.354 121.493 154.716 121.5 154.804C121.508 154.904 121.525 154.936 121.605 154.997C121.674 155.05 122.026 155.056 122.73 155.067L129.26 155.175C129.965 155.187 130.317 155.193 130.388 155.142C130.469 155.084 130.487 155.052 130.498 154.952C130.508 154.865 130.3 154.495 129.885 153.755C129.52 153.106 129.234 152.203 129.254 150.974Z" stroke="#21D120" stroke-width="1.5" stroke-linecap="round" stroke-linejoin="round"/>
<path d="M127.495 155.146C127.491 155.348 127.462 157.146 125.962 157.121C124.462 157.096 124.492 155.299 124.495 155.097" stroke="#21D120" stroke-linecap="round" stroke-linejoin="round"/>
<rect x="159" y="136.238" width="243" height="10" rx="2" fill="#E3E9E0"/>
<rect x="159" y="158.238" width="108" height="10" rx="2" fill="#E3E9E0"/>
<path d="M161.376 272.238H11.6243C5.20436 272.238 0 277.509 0 284.012V379.464C0 385.967 5.20436 391.238 11.6243 391.238H161.376C167.796 391.238 173 385.967 173 379.464V284.012C173 277.509 167.796 272.238 161.376 272.238Z" fill="#ABD53D"/>
<path d="M56.2851 346.18H17.04C16.4878 346.18 16.04 346.628 16.04 347.18V352.112C16.04 352.664 16.4878 353.112 17.04 353.112H56.2851C56.8374 353.112 57.2851 352.664 57.2851 352.112V347.18C57.2851 346.628 56.8374 346.18 56.2851 346.18Z" fill="white" fill-opacity="0.6"/>
<path d="M105.55 346.18H67.4507C66.8984 346.18 66.4507 346.628 66.4507 347.18V352.112C66.4507 352.664 66.8984 353.112 67.4507 353.112H105.55C106.102 353.112 106.55 352.664 106.55 352.112V347.18C106.55 346.628 106.102 346.18 105.55 346.18Z" fill="white" fill-opacity="0.6"/>
<path d="M155.961 346.18H116.716C116.164 346.18 115.716 346.628 115.716 347.18V352.112C115.716 352.664 116.164 353.112 116.716 353.112H155.961C156.513 353.112 156.961 352.664 156.961 352.112V347.18C156.961 346.628 156.513 346.18 155.961 346.18Z" fill="white" fill-opacity="0.6"/>
<path d="M98.6758 363.51H17.04C16.4878 363.51 16.04 363.958 16.04 364.51V367.131C16.04 367.684 16.4878 368.131 17.04 368.131H98.6758C99.2281 368.131 99.6758 367.684 99.6758 367.131V364.51C99.6758 363.958 99.2281 363.51 98.6758 363.51Z" fill="white" fill-opacity="0.6"/>
<path d="M156.416 368.131H130.009C129.075 368.131 128.318 368.905 128.318 369.859V379.112C128.318 380.066 129.075 380.84 130.009 380.84H156.416C157.349 380.84 158.106 380.066 158.106 379.112V369.859C158.106 368.905 157.349 368.131 156.416 368.131Z" fill="white" fill-opacity="0.6"/>
<path d="M44.8572 311.52H18.1567C16.9877 311.52 16.04 312.633 16.04 314.006V330.985C16.04 332.358 16.9877 333.471 18.1567 333.471H44.8572C46.0262 333.471 46.9738 332.358 46.9738 330.985V314.006C46.9738 312.633 46.0262 311.52 44.8572 311.52Z" fill="white" fill-opacity="0.6"/>
<path d="M420.976 76.2049C419.77 76.205 418.605 75.787 417.696 75.028C398.826 59.2127 394.856 37.8589 394.022 29.4128C393.901 28.1951 394.277 26.9799 395.072 26.023C395.866 25.066 397.016 24.4419 398.281 24.2821C405.658 23.3436 414.945 18.736 418.594 16.7975C419.331 16.408 420.158 16.2042 421 16.2052C421.841 16.2042 422.669 16.408 423.406 16.7975C427.054 18.736 436.341 23.3436 443.719 24.2821C444.984 24.4401 446.135 25.0637 446.93 26.0211C447.725 26.9785 448.1 28.1948 447.977 29.4128C447.175 37.8743 443.165 59.2127 424.304 75.028C423.383 75.7988 422.198 76.2177 420.976 76.2049Z" stroke="#0C3D22" stroke-width="1.29" stroke-linecap="round" stroke-linejoin="round"/>
<path d="M419.596 18.5359C416.052 20.4205 406.34 25.2589 398.553 26.2282C397.821 26.3206 397.155 26.6816 396.694 27.2352C396.234 27.7889 396.015 28.4921 396.083 29.1974C396.829 36.7358 400.534 57.9896 419.059 73.5126C419.591 73.9548 420.271 74.1982 420.975 74.1982C421.68 74.1982 422.36 73.9548 422.892 73.5126C441.417 57.9896 445.13 36.7358 445.868 29.1974C445.936 28.4921 445.717 27.7889 445.257 27.2352C444.796 26.6816 444.13 26.3206 443.398 26.2282C435.611 25.2359 425.907 20.3974 422.355 18.5359C421.932 18.3123 421.458 18.1951 420.975 18.1951C420.493 18.1951 420.019 18.3123 419.596 18.5359Z" fill="#0C3D22"/>
<path d="M408.136 47.7204L418.136 55.9896L433.822 31.0128" stroke="#CAEE0E" stroke-width="4" stroke-linecap="round" stroke-linejoin="round"/>
<rect x="116" y="206.238" width="329" height="110" rx="8" fill="white"/>
<path d="M132 242.238C132 231.192 140.954 222.238 152 222.238C163.046 222.238 172 231.192 172 242.238C172 253.284 163.046 262.238 152 262.238C140.954 262.238 132 253.284 132 242.238Z" fill="#55EA54" fill-opacity="0.12"/>
<path d="M157.933 249.238C159.053 249.238 159.613 249.238 160.041 249.02C160.417 248.828 160.723 248.522 160.915 248.146C161.133 247.718 161.133 247.158 161.133 246.038V238.438C161.133 237.318 161.133 236.758 160.915 236.33C160.723 235.954 160.417 235.648 160.041 235.456C159.613 235.238 159.053 235.238 157.933 235.238L144.333 235.238C143.213 235.238 142.653 235.238 142.225 235.456C141.849 235.648 141.543 235.954 141.351 236.33C141.133 236.758 141.133 237.318 141.133 238.438L141.133 246.038C141.133 247.158 141.133 247.718 141.351 248.146C141.543 248.522 141.849 248.828 142.225 249.02C142.653 249.238 143.213 249.238 144.333 249.238L157.933 249.238Z" stroke="#21D120" stroke-width="1.5" stroke-linecap="round" stroke-linejoin="round"/>
<path d="M145.133 240.238V244.238M157.133 240.238V244.238M153.633 242.238C153.633 243.619 152.514 244.738 151.133 244.738C149.752 244.738 148.633 243.619 148.633 242.238C148.633 240.857 149.752 239.738 151.133 239.738C152.514 239.738 153.633 240.857 153.633 242.238Z" stroke="#21D120" stroke-width="1.5" stroke-linecap="round" stroke-linejoin="round"/>
<rect x="180" y="226.238" width="243" height="10" rx="2" fill="#E3E9E0"/>
<rect x="180" y="248.238" width="213" height="10" rx="2" fill="#E3E9E0"/>
<rect x="132" y="278.238" width="22" height="22" rx="11" fill="#E3E9E0"/>
<rect x="162" y="283.238" width="107" height="12" rx="2" fill="#E3E9E0"/>
<rect x="292" y="278.238" width="22" height="22" rx="11" fill="#E3E9E0"/>
<rect x="322" y="283.238" width="107" height="12" rx="2" fill="#E3E9E0"/>
</svg>
