<svg width="479" height="399" viewBox="0 0 479 399" fill="none" xmlns="http://www.w3.org/2000/svg">
<rect x="49.5" y="39.582" width="429" height="335" rx="16" fill="white" fill-opacity="0.08"/>
<rect x="153" y="0.582031" width="290" height="105" rx="8" fill="white"/>
<path d="M221.5 53.082L204 35.582V45.582C186.5 48.082 179 60.582 176.5 73.082C182.75 64.332 191.5 60.332 204 60.332V70.582L221.5 53.082Z" fill="#2DD32C"/>
<path d="M250.824 33.829C250.108 33.829 249.418 33.7182 248.753 33.4965C248.088 33.2685 247.505 32.9455 247.005 32.5275C246.511 32.1095 246.159 31.6124 245.95 31.036L247.441 30.4755C247.568 30.8302 247.803 31.1405 248.145 31.4065C248.493 31.6662 248.901 31.8689 249.37 32.0145C249.839 32.1602 250.323 32.233 250.824 32.233C251.394 32.233 251.922 32.1412 252.41 31.9575C252.904 31.7675 253.303 31.5047 253.607 31.169C253.911 30.8334 254.063 30.4407 254.063 29.991C254.063 29.5287 253.905 29.1519 253.588 28.8605C253.271 28.5629 252.866 28.3285 252.372 28.1575C251.878 27.9802 251.362 27.844 250.824 27.749C249.905 27.597 249.082 27.3817 248.354 27.103C247.632 26.818 247.058 26.4222 246.634 25.9155C246.216 25.4089 246.007 24.7407 246.007 23.911C246.007 23.1384 246.229 22.4639 246.672 21.8875C247.122 21.3112 247.714 20.8647 248.449 20.548C249.183 20.2314 249.975 20.073 250.824 20.073C251.527 20.073 252.207 20.1839 252.866 20.4055C253.531 20.6209 254.117 20.9375 254.624 21.3555C255.13 21.7735 255.494 22.2834 255.716 22.885L254.206 23.436C254.079 23.075 253.841 22.7647 253.493 22.505C253.151 22.239 252.746 22.0364 252.277 21.897C251.815 21.7514 251.33 21.6785 250.824 21.6785C250.26 21.6722 249.734 21.764 249.247 21.954C248.759 22.144 248.363 22.4069 248.059 22.7425C247.755 23.0782 247.603 23.4677 247.603 23.911C247.603 24.443 247.742 24.8515 248.021 25.1365C248.306 25.4152 248.692 25.6242 249.18 25.7635C249.668 25.9029 250.216 26.0264 250.824 26.134C251.685 26.2797 252.483 26.5109 253.218 26.8275C253.952 27.1379 254.541 27.5527 254.984 28.072C255.434 28.5914 255.659 29.231 255.659 29.991C255.659 30.7637 255.434 31.4382 254.984 32.0145C254.541 32.5909 253.952 33.0374 253.218 33.354C252.483 33.6707 251.685 33.829 250.824 33.829ZM266.52 27.673V33.582H264.924V28.0245C264.924 27.5432 264.807 27.1062 264.573 26.7135C264.338 26.3209 264.025 26.0105 263.632 25.7825C263.24 25.5482 262.803 25.431 262.321 25.431C261.846 25.431 261.409 25.5482 261.01 25.7825C260.618 26.0105 260.304 26.3209 260.07 26.7135C259.835 27.1062 259.718 27.5432 259.718 28.0245V33.582H258.122V19.332H259.718V25.2695C260.054 24.8262 260.478 24.4747 260.991 24.215C261.504 23.949 262.062 23.816 262.663 23.816C263.373 23.816 264.019 23.9902 264.601 24.3385C265.19 24.6805 265.656 25.1429 265.998 25.7255C266.346 26.3082 266.52 26.9574 266.52 27.673ZM276.073 24.082H277.669V33.582H276.073L276.006 31.9765C275.708 32.5275 275.297 32.974 274.771 33.316C274.252 33.658 273.631 33.829 272.909 33.829C272.212 33.829 271.56 33.6992 270.952 33.4395C270.344 33.1735 269.806 32.8094 269.337 32.347C268.875 31.8784 268.514 31.34 268.254 30.732C267.994 30.124 267.865 29.4685 267.865 28.7655C267.865 28.0879 267.991 27.4482 268.245 26.8465C268.498 26.2449 268.849 25.7192 269.299 25.2695C269.755 24.8135 270.281 24.4589 270.876 24.2055C271.471 23.9459 272.111 23.816 272.795 23.816C273.542 23.816 274.198 23.9934 274.762 24.348C275.325 24.6964 275.781 25.1492 276.13 25.7065L276.073 24.082ZM272.881 32.2805C273.508 32.2805 274.049 32.1285 274.505 31.8245C274.967 31.5142 275.322 31.0962 275.569 30.5705C275.822 30.0449 275.949 29.4654 275.949 28.832C275.949 28.186 275.822 27.6034 275.569 27.084C275.316 26.5584 274.958 26.1435 274.496 25.8395C274.04 25.5292 273.501 25.374 272.881 25.374C272.254 25.374 271.684 25.5292 271.171 25.8395C270.658 26.1499 270.249 26.5679 269.945 27.0935C269.647 27.6129 269.499 28.1924 269.499 28.832C269.499 29.4717 269.654 30.0544 269.964 30.58C270.274 31.0994 270.686 31.5142 271.199 31.8245C271.712 32.1285 272.273 32.2805 272.881 32.2805ZM279.767 33.582V24.082H281.363V25.2695C281.699 24.8262 282.123 24.4747 282.636 24.215C283.149 23.949 283.707 23.816 284.308 23.816C284.676 23.816 285.03 23.8635 285.372 23.9585L284.726 25.5545C284.467 25.4722 284.213 25.431 283.966 25.431C283.491 25.431 283.054 25.5482 282.655 25.7825C282.263 26.0105 281.949 26.3209 281.715 26.7135C281.481 27.1062 281.363 27.5432 281.363 28.0245V33.582H279.767ZM290.437 33.829C289.563 33.829 288.765 33.6042 288.043 33.1545C287.328 32.7049 286.755 32.1032 286.324 31.3495C285.9 30.5895 285.687 29.7504 285.687 28.832C285.687 28.1354 285.811 27.4862 286.058 26.8845C286.305 26.2765 286.644 25.7445 287.074 25.2885C287.511 24.8262 288.018 24.4652 288.594 24.2055C289.171 23.9459 289.785 23.816 290.437 23.816C291.153 23.816 291.809 23.9617 292.404 24.253C293.006 24.538 293.519 24.937 293.943 25.45C294.374 25.963 294.693 26.5584 294.902 27.236C295.118 27.9137 295.197 28.6389 295.14 29.4115H287.388C287.464 29.9499 287.641 30.4312 287.92 30.8555C288.199 31.2735 288.553 31.606 288.984 31.853C289.421 32.1 289.905 32.2267 290.437 32.233C291.007 32.233 291.524 32.0874 291.986 31.796C292.448 31.4984 292.822 31.093 293.107 30.58L294.731 30.96C294.351 31.8024 293.778 32.4927 293.012 33.031C292.246 33.563 291.387 33.829 290.437 33.829ZM287.34 28.1575H293.534C293.484 27.6255 293.313 27.141 293.021 26.704C292.73 26.2607 292.36 25.906 291.91 25.64C291.46 25.374 290.969 25.241 290.437 25.241C289.905 25.241 289.418 25.3709 288.974 25.6305C288.531 25.8902 288.164 26.2417 287.872 26.685C287.587 27.122 287.41 27.6129 287.34 28.1575ZM301.835 33.582V20.282H309.635V21.878H303.431V25.659H308.723V27.255H303.431V33.582H301.835ZM310.644 24.082H312.24V33.582H310.644V24.082ZM311.461 22.5335C311.208 22.5335 310.996 22.4512 310.825 22.2865C310.654 22.1219 310.568 21.916 310.568 21.669C310.568 21.422 310.654 21.2162 310.825 21.0515C310.996 20.8869 311.205 20.8045 311.452 20.8045C311.699 20.8045 311.908 20.8869 312.079 21.0515C312.25 21.2162 312.335 21.422 312.335 21.669C312.335 21.916 312.25 22.1219 312.079 22.2865C311.914 22.4512 311.708 22.5335 311.461 22.5335ZM314.778 33.582V19.332H316.374V33.582H314.778ZM322.943 33.829C322.069 33.829 321.271 33.6042 320.549 33.1545C319.834 32.7049 319.26 32.1032 318.83 31.3495C318.405 30.5895 318.193 29.7504 318.193 28.832C318.193 28.1354 318.317 27.4862 318.564 26.8845C318.811 26.2765 319.15 25.7445 319.58 25.2885C320.017 24.8262 320.524 24.4652 321.1 24.2055C321.677 23.9459 322.291 23.816 322.943 23.816C323.659 23.816 324.314 23.9617 324.91 24.253C325.511 24.538 326.024 24.937 326.449 25.45C326.879 25.963 327.199 26.5584 327.408 27.236C327.624 27.9137 327.703 28.6389 327.646 29.4115H319.894C319.97 29.9499 320.147 30.4312 320.426 30.8555C320.704 31.2735 321.059 31.606 321.49 31.853C321.927 32.1 322.411 32.2267 322.943 32.233C323.513 32.233 324.029 32.0874 324.492 31.796C324.954 31.4984 325.328 31.093 325.613 30.58L327.237 30.96C326.857 31.8024 326.284 32.4927 325.518 33.031C324.751 33.563 323.893 33.829 322.943 33.829ZM319.846 28.1575H326.04C325.99 27.6255 325.819 27.141 325.527 26.704C325.236 26.2607 324.865 25.906 324.416 25.64C323.966 25.374 323.475 25.241 322.943 25.241C322.411 25.241 321.924 25.3709 321.48 25.6305C321.037 25.8902 320.67 26.2417 320.378 26.685C320.093 27.122 319.916 27.6129 319.846 28.1575Z" fill="#2C3839"/>
<rect x="245" y="49.582" width="18" height="18" rx="9" fill="#E3E9E0"/>
<rect x="271" y="52.582" width="132" height="12" rx="6" fill="#E3E9E0"/>
<rect x="245" y="75.582" width="18" height="18" rx="9" fill="#E3E9E0"/>
<rect x="271" y="78.582" width="156" height="12" rx="6" fill="#E3E9E0"/>
<rect y="320.582" width="259" height="78" rx="8" fill="white"/>
<path d="M40.5 352.582H37V345.582H40.5M35.25 352.582H31.75V345.582H35.25M30 352.582H26.5V345.582H30M40.5 342.082H26.5L16 352.582V373.582C16 374.51 16.3687 375.401 17.0251 376.057C17.6815 376.713 18.5717 377.082 19.5 377.082H40.5C41.4283 377.082 42.3185 376.713 42.9749 376.057C43.6313 375.401 44 374.51 44 373.582V345.582C44 344.654 43.6313 343.764 42.9749 343.107C42.3185 342.451 41.4283 342.082 40.5 342.082Z" fill="#2DD32C"/>
<rect x="60" y="336.582" width="183" height="10" rx="5" fill="#D3F871"/>
<rect x="60" y="354.582" width="123" height="10" rx="5" fill="#0C3D22"/>
<rect x="60" y="372.582" width="148" height="10" rx="5" fill="#DBF2DE"/>
<g clip-path="url(#clip0_229_5105)">
<path d="M430.744 270.75C428.63 260.04 422.864 250.396 414.43 243.465C405.996 236.534 395.417 232.746 384.5 232.749C366.317 232.749 350.525 243.067 342.66 258.167C333.413 259.166 324.861 263.548 318.648 270.469C312.435 277.391 308.999 286.364 309 295.665C309 316.491 325.925 333.415 346.75 333.415H428.542C445.907 333.415 460 319.322 460 301.957C460 285.347 447.102 271.883 430.744 270.75Z" fill="white" fill-opacity="0.1"/>
</g>
<rect x="79" y="129.582" width="311" height="167" rx="8" fill="#ABD43D"/>
<path fill-rule="evenodd" clip-rule="evenodd" d="M205 160.975C205 159.014 205.777 157.134 207.16 155.747C208.543 154.361 210.419 153.582 212.375 153.582H256.625C257.593 153.582 258.553 153.773 259.447 154.145C260.342 154.516 261.155 155.061 261.84 155.747C262.525 156.434 263.068 157.249 263.439 158.146C263.809 159.043 264 160.004 264 160.975V192.189C264 193.16 263.809 194.121 263.439 195.018C263.068 195.915 262.525 196.73 261.84 197.417C261.155 198.103 260.342 198.648 259.447 199.019C258.553 199.391 257.593 199.582 256.625 199.582H212.375C210.419 199.582 208.543 198.803 207.16 197.417C205.777 196.03 205 194.15 205 192.189V160.975ZM209.917 180.065V192.189C209.917 193.549 211.018 194.653 212.375 194.653H256.625C257.277 194.653 257.902 194.394 258.363 193.932C258.824 193.47 259.083 192.843 259.083 192.189V183.351L251.807 176.06C251.346 175.598 250.721 175.339 250.069 175.339C249.418 175.339 248.793 175.598 248.332 176.06L242.072 182.332L243.612 183.876C243.854 184.102 244.047 184.374 244.182 184.676C244.316 184.979 244.388 185.305 244.394 185.636C244.4 185.967 244.339 186.295 244.216 186.602C244.092 186.909 243.908 187.188 243.675 187.422C243.441 187.656 243.163 187.84 242.857 187.964C242.551 188.088 242.223 188.149 241.893 188.143C241.563 188.137 241.237 188.065 240.936 187.93C240.634 187.795 240.363 187.601 240.138 187.359L223.126 170.31C222.665 169.848 222.04 169.589 221.389 169.589C220.737 169.589 220.113 169.848 219.652 170.31L209.917 180.065ZM241.056 166.725C241.056 167.596 240.71 168.432 240.096 169.048C239.481 169.664 238.647 170.011 237.778 170.011C236.908 170.011 236.075 169.664 235.46 169.048C234.845 168.432 234.5 167.596 234.5 166.725C234.5 165.853 234.845 165.018 235.46 164.402C236.075 163.785 236.908 163.439 237.778 163.439C238.647 163.439 239.481 163.785 240.096 164.402C240.71 165.018 241.056 165.853 241.056 166.725Z" fill="white"/>
<rect x="133" y="223.582" width="203" height="8" rx="4" fill="#E9F1E4"/>
<rect x="133" y="223.582" width="144" height="8" rx="4" fill="#0C3D22"/>
<path d="M164.5 262.324C163.294 261.517 162.5 260.142 162.5 258.582C162.5 256.238 164.292 254.313 166.58 254.101C167.048 251.254 169.52 249.082 172.5 249.082C175.48 249.082 177.952 251.254 178.42 254.101C180.708 254.313 182.5 256.238 182.5 258.582C182.5 260.142 181.706 261.517 180.5 262.324" stroke="#0C3D22" stroke-width="2" stroke-linecap="round" stroke-linejoin="round"/>
<path d="M168.5 262.082L172.5 258.082M172.5 258.082L176.5 262.082M172.5 258.082L172.5 267.082" stroke="#0C3D22" stroke-width="2" stroke-linecap="round" stroke-linejoin="round"/>
<path d="M198.846 264.829C197.782 264.829 196.857 264.569 196.072 264.05C195.293 263.531 194.691 262.834 194.267 261.96C193.849 261.08 193.64 260.104 193.64 259.034V251.282H195.236V259.034C195.236 259.794 195.375 260.494 195.654 261.134C195.939 261.773 196.348 262.283 196.88 262.663C197.418 263.043 198.073 263.233 198.846 263.233C199.631 263.233 200.29 263.043 200.822 262.663C201.354 262.277 201.756 261.767 202.029 261.134C202.307 260.494 202.447 259.794 202.447 259.034V251.282H204.043V259.034C204.043 259.838 203.922 260.592 203.682 261.295C203.441 261.992 203.093 262.606 202.637 263.138C202.187 263.67 201.642 264.085 201.003 264.383C200.363 264.68 199.644 264.829 198.846 264.829ZM208.127 269.332H206.531V255.082H208.127V256.707C208.45 256.149 208.881 255.7 209.419 255.358C209.958 255.009 210.597 254.835 211.338 254.835C212.029 254.835 212.675 254.965 213.276 255.225C213.884 255.484 214.416 255.845 214.872 256.308C215.328 256.764 215.686 257.292 215.946 257.894C216.206 258.496 216.335 259.142 216.335 259.832C216.335 260.522 216.206 261.172 215.946 261.78C215.686 262.388 215.328 262.923 214.872 263.385C214.416 263.841 213.884 264.199 213.276 264.459C212.675 264.718 212.029 264.848 211.338 264.848C210.597 264.848 209.958 264.677 209.419 264.335C208.881 263.987 208.45 263.534 208.127 262.977V269.332ZM211.319 256.384C210.705 256.384 210.167 256.539 209.704 256.849C209.242 257.159 208.884 257.574 208.631 258.094C208.384 258.613 208.26 259.192 208.26 259.832C208.26 260.465 208.384 261.045 208.631 261.571C208.884 262.096 209.239 262.514 209.695 262.825C210.157 263.135 210.699 263.29 211.319 263.29C211.934 263.29 212.497 263.138 213.01 262.834C213.523 262.524 213.935 262.109 214.245 261.59C214.556 261.064 214.711 260.478 214.711 259.832C214.711 259.199 214.559 258.622 214.255 258.103C213.951 257.577 213.542 257.159 213.029 256.849C212.516 256.539 211.946 256.384 211.319 256.384ZM218.031 264.582V250.332H219.627V264.582H218.031ZM226.196 264.829C225.322 264.829 224.524 264.604 223.802 264.155C223.087 263.705 222.514 263.103 222.083 262.35C221.659 261.59 221.446 260.75 221.446 259.832C221.446 259.135 221.57 258.486 221.817 257.885C222.064 257.277 222.403 256.745 222.833 256.289C223.27 255.826 223.777 255.465 224.353 255.206C224.93 254.946 225.544 254.816 226.196 254.816C227.07 254.816 227.865 255.041 228.581 255.491C229.303 255.94 229.876 256.545 230.3 257.305C230.731 258.065 230.946 258.907 230.946 259.832C230.946 260.522 230.823 261.168 230.576 261.77C230.329 262.372 229.987 262.904 229.55 263.366C229.119 263.822 228.616 264.18 228.039 264.44C227.469 264.699 226.855 264.829 226.196 264.829ZM226.196 263.233C226.792 263.233 227.327 263.078 227.802 262.768C228.283 262.451 228.66 262.036 228.932 261.523C229.211 261.004 229.35 260.44 229.35 259.832C229.35 259.211 229.208 258.641 228.923 258.122C228.644 257.603 228.267 257.188 227.792 256.878C227.317 256.567 226.785 256.412 226.196 256.412C225.601 256.412 225.066 256.57 224.591 256.887C224.116 257.197 223.739 257.612 223.46 258.132C223.182 258.651 223.042 259.218 223.042 259.832C223.042 260.465 223.185 261.042 223.47 261.561C223.755 262.074 224.138 262.483 224.619 262.787C225.101 263.084 225.626 263.233 226.196 263.233ZM240.301 255.082H241.897V264.582H240.301L240.234 262.977C239.936 263.528 239.525 263.974 238.999 264.316C238.48 264.658 237.859 264.829 237.137 264.829C236.44 264.829 235.788 264.699 235.18 264.44C234.572 264.174 234.034 263.809 233.565 263.347C233.103 262.878 232.742 262.34 232.482 261.732C232.222 261.124 232.093 260.469 232.093 259.766C232.093 259.088 232.219 258.448 232.473 257.847C232.726 257.245 233.077 256.719 233.527 256.27C233.983 255.814 234.509 255.459 235.104 255.206C235.699 254.946 236.339 254.816 237.023 254.816C237.77 254.816 238.426 254.993 238.99 255.348C239.553 255.696 240.009 256.149 240.358 256.707L240.301 255.082ZM237.109 263.281C237.736 263.281 238.277 263.129 238.733 262.825C239.195 262.514 239.55 262.096 239.797 261.571C240.05 261.045 240.177 260.465 240.177 259.832C240.177 259.186 240.05 258.603 239.797 258.084C239.544 257.558 239.186 257.144 238.724 256.84C238.268 256.529 237.729 256.374 237.109 256.374C236.482 256.374 235.912 256.529 235.399 256.84C234.886 257.15 234.477 257.568 234.173 258.094C233.875 258.613 233.727 259.192 233.727 259.832C233.727 260.472 233.882 261.054 234.192 261.58C234.502 262.099 234.914 262.514 235.427 262.825C235.94 263.129 236.501 263.281 237.109 263.281ZM251.457 250.332H253.053V264.582H251.457V262.967C251.134 263.524 250.701 263.974 250.156 264.316C249.611 264.658 248.972 264.829 248.237 264.829C247.547 264.829 246.901 264.699 246.299 264.44C245.697 264.18 245.165 263.822 244.703 263.366C244.247 262.904 243.889 262.372 243.629 261.77C243.37 261.168 243.24 260.522 243.24 259.832C243.24 259.142 243.37 258.496 243.629 257.894C243.889 257.286 244.247 256.754 244.703 256.298C245.165 255.836 245.697 255.475 246.299 255.215C246.901 254.955 247.547 254.826 248.237 254.826C248.972 254.826 249.611 254.997 250.156 255.339C250.701 255.681 251.134 256.13 251.457 256.688V250.332ZM248.256 263.281C248.883 263.281 249.424 263.129 249.88 262.825C250.343 262.514 250.697 262.096 250.944 261.571C251.198 261.045 251.324 260.465 251.324 259.832C251.324 259.186 251.198 258.603 250.944 258.084C250.691 257.558 250.333 257.144 249.871 256.84C249.415 256.529 248.877 256.374 248.256 256.374C247.629 256.374 247.059 256.529 246.546 256.84C246.039 257.15 245.634 257.568 245.33 258.094C245.026 258.613 244.874 259.192 244.874 259.832C244.874 260.472 245.029 261.054 245.339 261.58C245.65 262.099 246.061 262.514 246.574 262.825C247.087 263.129 247.648 263.281 248.256 263.281ZM260.297 264.582V251.282H264.686C265.402 251.282 266.044 251.456 266.614 251.805C267.191 252.153 267.647 252.625 267.982 253.22C268.324 253.809 268.495 254.468 268.495 255.196C268.495 255.937 268.321 256.605 267.973 257.201C267.631 257.79 267.169 258.258 266.586 258.607C266.01 258.949 265.376 259.12 264.686 259.12H261.893V264.582H260.297ZM261.893 257.524H264.543C264.974 257.524 265.367 257.419 265.721 257.21C266.082 256.995 266.367 256.707 266.576 256.346C266.792 255.978 266.899 255.567 266.899 255.111C266.899 254.648 266.792 254.237 266.576 253.876C266.367 253.508 266.082 253.22 265.721 253.011C265.367 252.796 264.974 252.688 264.543 252.688H261.893V257.524ZM278.97 258.673V264.582H277.374V259.025C277.374 258.543 277.257 258.106 277.023 257.714C276.788 257.321 276.475 257.011 276.082 256.783C275.689 256.548 275.252 256.431 274.771 256.431C274.296 256.431 273.859 256.548 273.46 256.783C273.067 257.011 272.754 257.321 272.52 257.714C272.285 258.106 272.168 258.543 272.168 259.025V264.582H270.572V250.332H272.168V256.27C272.504 255.826 272.928 255.475 273.441 255.215C273.954 254.949 274.511 254.816 275.113 254.816C275.822 254.816 276.468 254.99 277.051 255.339C277.64 255.681 278.106 256.143 278.448 256.726C278.796 257.308 278.97 257.957 278.97 258.673ZM285.064 264.829C284.19 264.829 283.392 264.604 282.67 264.155C281.955 263.705 281.382 263.103 280.951 262.35C280.527 261.59 280.314 260.75 280.314 259.832C280.314 259.135 280.438 258.486 280.685 257.885C280.932 257.277 281.271 256.745 281.701 256.289C282.138 255.826 282.645 255.465 283.221 255.206C283.798 254.946 284.412 254.816 285.064 254.816C285.938 254.816 286.733 255.041 287.449 255.491C288.171 255.94 288.744 256.545 289.168 257.305C289.599 258.065 289.814 258.907 289.814 259.832C289.814 260.522 289.691 261.168 289.444 261.77C289.197 262.372 288.855 262.904 288.418 263.366C287.987 263.822 287.484 264.18 286.907 264.44C286.337 264.699 285.723 264.829 285.064 264.829ZM285.064 263.233C285.66 263.233 286.195 263.078 286.67 262.768C287.151 262.451 287.528 262.036 287.8 261.523C288.079 261.004 288.218 260.44 288.218 259.832C288.218 259.211 288.076 258.641 287.791 258.122C287.512 257.603 287.135 257.188 286.66 256.878C286.185 256.567 285.653 256.412 285.064 256.412C284.469 256.412 283.934 256.57 283.459 256.887C282.984 257.197 282.607 257.612 282.328 258.132C282.05 258.651 281.91 259.218 281.91 259.832C281.91 260.465 282.053 261.042 282.338 261.561C282.623 262.074 283.006 262.483 283.487 262.787C283.969 263.084 284.494 263.233 285.064 263.233ZM296.396 256.678H294.239L294.23 264.582H292.634L292.643 256.678H291.009V255.082H292.643L292.634 252.099H294.23L294.239 255.082H296.396V256.678ZM302.238 264.829C301.364 264.829 300.566 264.604 299.844 264.155C299.128 263.705 298.555 263.103 298.124 262.35C297.7 261.59 297.488 260.75 297.488 259.832C297.488 259.135 297.611 258.486 297.858 257.885C298.105 257.277 298.444 256.745 298.875 256.289C299.312 255.826 299.818 255.465 300.395 255.206C300.971 254.946 301.585 254.816 302.238 254.816C303.112 254.816 303.907 255.041 304.622 255.491C305.344 255.94 305.917 256.545 306.342 257.305C306.772 258.065 306.988 258.907 306.988 259.832C306.988 260.522 306.864 261.168 306.617 261.77C306.37 262.372 306.028 262.904 305.591 263.366C305.161 263.822 304.657 264.18 304.081 264.44C303.511 264.699 302.896 264.829 302.238 264.829ZM302.238 263.233C302.833 263.233 303.368 263.078 303.843 262.768C304.325 262.451 304.701 262.036 304.974 261.523C305.252 261.004 305.392 260.44 305.392 259.832C305.392 259.211 305.249 258.641 304.964 258.122C304.686 257.603 304.309 257.188 303.834 256.878C303.359 256.567 302.827 256.412 302.238 256.412C301.642 256.412 301.107 256.57 300.632 256.887C300.157 257.197 299.78 257.612 299.502 258.132C299.223 258.651 299.084 259.218 299.084 259.832C299.084 260.465 299.226 261.042 299.511 261.561C299.796 262.074 300.179 262.483 300.661 262.787C301.142 263.084 301.668 263.233 302.238 263.233Z" fill="#08391E"/>
<defs>
<clipPath id="clip0_229_5105">
<rect width="151" height="151" fill="white" transform="translate(309 207.582)"/>
</clipPath>
</defs>
</svg>
